M48
; DRILL file {KiCad 7.0.7-7.0.7~ubuntu22.04.1} date So 29 Okt 2023 13:36:27 CET
; FORMAT={-:-/ absolute / metric / decimal}
; #@! TF.CreationDate,2023-10-29T13:36:27+01:00
; #@! TF.GenerationSoftware,Kicad,Pcbnew,7.0.7-7.0.7~ubuntu22.04.1
; #@! TF.FileFunction,Plated,1,4,PTH
FMAT,2
METRIC
; #@! TA.AperFunction,Plated,PTH,ViaDrill
T1C0.400
; #@! TA.AperFunction,Plated,PTH,ComponentDrill
T2C0.650
; #@! TA.AperFunction,Plated,PTH,ComponentDrill
T3C0.700
; #@! TA.AperFunction,Plated,PTH,ComponentDrill
T4C0.990
; #@! TA.AperFunction,Plated,PTH,ComponentDrill
T5C1.000
; #@! TA.AperFunction,Plated,PTH,ComponentDrill
T6C1.300
; #@! TA.AperFunction,Plated,PTH,ComponentDrill
T7C3.200
%
G90
G05
T1
X157.6Y-66.3
X167.9Y-71.4
X170.6Y-73.9
X172.652Y-46.689
X172.925Y-44.2
X173.025Y-42.9
X173.1Y-82.2
X175.725Y-44.429
X176.4Y-59.9
X176.5Y-82.2
X177.625Y-44.6
X177.9Y-70.5
X179.2Y-73.6
X180.1Y-82.2
X182.839Y-72.739
X183.397Y-68.103
X183.598Y-65.147
X183.7Y-82.1
X183.95Y-60.0
X184.995Y-67.801
X185.689Y-72.689
X185.7Y-73.8
X187.2Y-82.2
X189.1Y-60.0
X189.789Y-74.689
X190.7Y-74.7
X190.8Y-70.1
X191.411Y-71.1
X191.5Y-43.25
X191.6Y-82.2
X191.9Y-77.4
X192.786Y-75.338
X193.697Y-43.729
X194.5Y-45.7
X194.7Y-40.5
X195.6Y-82.2
X195.8Y-39.9
X196.5Y-47.34
X196.6Y-59.8
X196.717Y-70.739
X197.0Y-73.0
X199.1Y-82.2
X202.6Y-82.2
X203.2Y-92.9
X203.9Y-92.9
X204.1Y-59.8
X204.4Y-71.958
X205.3Y-97.3
X206.6Y-95.7
X208.2Y-73.2
X213.0Y-68.0
X213.0Y-69.0
X213.0Y-70.0
X213.246Y-73.7
X214.0Y-68.0
X214.0Y-69.0
X214.0Y-70.0
X214.075Y-76.225
X215.5Y-68.0
X215.5Y-69.0
X215.5Y-70.0
X215.546Y-73.6
X217.0Y-68.0
X217.0Y-69.0
X217.0Y-70.0
X217.846Y-74.0
X217.846Y-75.9
X218.0Y-68.0
X218.0Y-69.0
X218.0Y-70.0
T4
X170.3Y-95.6
X174.8Y-95.6
X180.9Y-95.6
X185.4Y-95.6
X191.5Y-95.6
X196.0Y-95.6
T5
X170.25Y-56.5
X170.25Y-85.5
X172.75Y-85.5
X175.25Y-56.5
X175.25Y-85.5
X177.75Y-85.5
X180.25Y-85.5
X182.75Y-56.5
X182.75Y-85.5
X185.25Y-85.5
X187.75Y-56.5
X187.75Y-85.5
X190.25Y-85.5
X192.75Y-85.5
X195.25Y-56.5
X195.25Y-85.5
X197.75Y-85.5
X200.25Y-85.5
X202.75Y-56.5
X202.75Y-85.5
X205.25Y-85.5
X207.75Y-56.5
X207.75Y-85.5
T6
X169.04Y-93.11
X176.05Y-93.11
X179.64Y-93.11
X186.65Y-93.11
X190.24Y-93.11
X197.25Y-93.11
T7
X164.0Y-52.0
X164.0Y-90.0
X214.0Y-52.0
X214.0Y-90.0
T2
X202.845Y-94.375G85X202.845Y-93.975
G05
X207.685Y-94.375G85X207.685Y-93.975
G05
T3
X202.535Y-97.425G85X202.535Y-96.925
G05
X207.995Y-97.425G85X207.995Y-96.925
G05
T0
M30
