G04 #@! TF.GenerationSoftware,KiCad,Pcbnew,7.0.7-7.0.7~ubuntu22.04.1*
G04 #@! TF.CreationDate,2023-10-29T13:36:20+01:00*
G04 #@! TF.ProjectId,vfd1,76666431-2e6b-4696-9361-645f70636258,rev?*
G04 #@! TF.SameCoordinates,Original*
G04 #@! TF.FileFunction,Soldermask,Bot*
G04 #@! TF.FilePolarity,Negative*
%FSLAX46Y46*%
G04 Gerber Fmt 4.6, Leading zero omitted, Abs format (unit mm)*
G04 Created by KiCad (PCBNEW 7.0.7-7.0.7~ubuntu22.04.1) date 2023-10-29 13:36:20*
%MOMM*%
%LPD*%
G01*
G04 APERTURE LIST*
%ADD10C,2.100000*%
%ADD11C,1.750000*%
%ADD12C,5.600000*%
%ADD13O,1.350000X1.700000*%
%ADD14O,1.100000X1.500000*%
%ADD15C,1.800000*%
G04 #@! TA.AperFunction,Profile*
%ADD16C,0.150000*%
G04 #@! TD*
G04 APERTURE END LIST*
D10*
X197250000Y-93110000D03*
X190240000Y-93110000D03*
D11*
X196000000Y-95600000D03*
X191500000Y-95600000D03*
D12*
X164000000Y-52000000D03*
X214000000Y-90000000D03*
D10*
X176050000Y-93110000D03*
X169040000Y-93110000D03*
D11*
X174800000Y-95600000D03*
X170300000Y-95600000D03*
D13*
X202535000Y-97175000D03*
D14*
X202845000Y-94175000D03*
X207685000Y-94175000D03*
D13*
X207995000Y-97175000D03*
D10*
X186650000Y-93110000D03*
X179640000Y-93110000D03*
D11*
X185400000Y-95600000D03*
X180900000Y-95600000D03*
D12*
X214000000Y-52000000D03*
X164000000Y-90000000D03*
D15*
X207750000Y-85500000D03*
X205250000Y-85500000D03*
X202750000Y-85500000D03*
X200250000Y-85500000D03*
X197750000Y-85500000D03*
X195250000Y-85500000D03*
X192750000Y-85500000D03*
X190250000Y-85500000D03*
X187750000Y-85500000D03*
X185250000Y-85500000D03*
X182750000Y-85500000D03*
X180250000Y-85500000D03*
X177750000Y-85500000D03*
X175250000Y-85500000D03*
X172750000Y-85500000D03*
X170250000Y-85500000D03*
X170250000Y-56500000D03*
X175250000Y-56500000D03*
X182750000Y-56500000D03*
X187750000Y-56500000D03*
X195250000Y-56500000D03*
X202750000Y-56500000D03*
X207750000Y-56500000D03*
D16*
X210502311Y-98461865D02*
G75*
G03*
X167509630Y-98471210I-21502311J27461865D01*
G01*
X210502311Y-98461866D02*
X167509629Y-98471211D01*
M02*
