G04 #@! TF.GenerationSoftware,KiCad,Pcbnew,7.0.7-7.0.7~ubuntu22.04.1*
G04 #@! TF.CreationDate,2023-10-29T13:36:20+01:00*
G04 #@! TF.ProjectId,vfd1,76666431-2e6b-4696-9361-645f70636258,rev?*
G04 #@! TF.SameCoordinates,Original*
G04 #@! TF.FileFunction,Copper,L2,Inr*
G04 #@! TF.FilePolarity,Positive*
%FSLAX46Y46*%
G04 Gerber Fmt 4.6, Leading zero omitted, Abs format (unit mm)*
G04 Created by KiCad (PCBNEW 7.0.7-7.0.7~ubuntu22.04.1) date 2023-10-29 13:36:20*
%MOMM*%
%LPD*%
G01*
G04 APERTURE LIST*
G04 #@! TA.AperFunction,ComponentPad*
%ADD10C,2.100000*%
G04 #@! TD*
G04 #@! TA.AperFunction,ComponentPad*
%ADD11C,1.750000*%
G04 #@! TD*
G04 #@! TA.AperFunction,ComponentPad*
%ADD12C,5.600000*%
G04 #@! TD*
G04 #@! TA.AperFunction,ComponentPad*
%ADD13O,1.350000X1.700000*%
G04 #@! TD*
G04 #@! TA.AperFunction,ComponentPad*
%ADD14O,1.100000X1.500000*%
G04 #@! TD*
G04 #@! TA.AperFunction,ComponentPad*
%ADD15C,1.800000*%
G04 #@! TD*
G04 #@! TA.AperFunction,ViaPad*
%ADD16C,0.600000*%
G04 #@! TD*
G04 #@! TA.AperFunction,Profile*
%ADD17C,0.150000*%
G04 #@! TD*
G04 APERTURE END LIST*
D10*
X197250000Y-93110000D03*
X190240000Y-93110000D03*
D11*
X196000000Y-95600000D03*
X191500000Y-95600000D03*
D12*
X164000000Y-52000000D03*
X214000000Y-90000000D03*
D10*
X176050000Y-93110000D03*
X169040000Y-93110000D03*
D11*
X174800000Y-95600000D03*
X170300000Y-95600000D03*
D13*
X202535000Y-97175000D03*
D14*
X202845000Y-94175000D03*
X207685000Y-94175000D03*
D13*
X207995000Y-97175000D03*
D10*
X186650000Y-93110000D03*
X179640000Y-93110000D03*
D11*
X185400000Y-95600000D03*
X180900000Y-95600000D03*
D12*
X214000000Y-52000000D03*
X164000000Y-90000000D03*
D15*
X207750000Y-85500000D03*
X205250000Y-85500000D03*
X202750000Y-85500000D03*
X200250000Y-85500000D03*
X197750000Y-85500000D03*
X195250000Y-85500000D03*
X192750000Y-85500000D03*
X190250000Y-85500000D03*
X187750000Y-85500000D03*
X185250000Y-85500000D03*
X182750000Y-85500000D03*
X180250000Y-85500000D03*
X177750000Y-85500000D03*
X175250000Y-85500000D03*
X172750000Y-85500000D03*
X170250000Y-85500000D03*
X170250000Y-56500000D03*
X175250000Y-56500000D03*
X182750000Y-56500000D03*
X187750000Y-56500000D03*
X195250000Y-56500000D03*
X202750000Y-56500000D03*
X207750000Y-56500000D03*
D16*
X214075000Y-76225000D03*
X191900000Y-77400000D03*
X194700000Y-40499992D03*
X170600000Y-73900000D03*
X183597600Y-65146672D03*
X184995000Y-67801000D03*
X206600000Y-95700000D03*
X179200000Y-73600000D03*
X157600000Y-66300000D03*
X205300000Y-97300000D03*
X175725000Y-44428527D03*
X195800000Y-39900000D03*
X204400000Y-71958200D03*
X196717058Y-70738683D03*
X177900000Y-70500000D03*
X213246000Y-73700000D03*
X177625000Y-44600012D03*
X203900000Y-92900000D03*
X173025000Y-42900000D03*
X167899996Y-71400000D03*
X217846000Y-74000000D03*
X203200000Y-92900000D03*
X217846000Y-75900000D03*
X193696800Y-43729143D03*
X196500000Y-47340000D03*
X190800000Y-70100000D03*
X208200000Y-73200000D03*
X215500000Y-70000000D03*
X173100000Y-82200000D03*
X189100000Y-60000000D03*
X217000000Y-68000000D03*
X213000000Y-68000000D03*
X204100000Y-59800000D03*
X214000000Y-68000000D03*
X196600000Y-59800000D03*
X199100000Y-82200000D03*
X183950000Y-60000000D03*
X218000000Y-68000000D03*
X192786000Y-75338000D03*
X202600000Y-82200000D03*
X180100000Y-82200000D03*
X195600000Y-82200000D03*
X213000000Y-70000000D03*
X215500000Y-69000000D03*
X183397000Y-68103000D03*
X182838600Y-72738600D03*
X187200000Y-82200000D03*
X217000000Y-70000000D03*
X176500000Y-82200000D03*
X176400000Y-59900000D03*
X215546000Y-73600000D03*
X213000000Y-69000000D03*
X218000000Y-69000000D03*
X218000000Y-70000000D03*
X217000000Y-69000000D03*
X183700000Y-82100000D03*
X214000000Y-69000000D03*
X214000000Y-70000000D03*
X197000000Y-73000000D03*
X191600000Y-82200000D03*
X215500000Y-68000000D03*
X185688683Y-72688683D03*
X172925000Y-44200000D03*
X172652400Y-46688683D03*
X185700000Y-73800000D03*
X190700000Y-74700000D03*
X191411000Y-71100000D03*
X189788683Y-74688683D03*
X191500000Y-43250000D03*
X194500000Y-45700000D03*
G04 #@! TA.AperFunction,Conductor*
G36*
X190740071Y-36465902D02*
G01*
X191902933Y-36544162D01*
X193062497Y-36661568D01*
X194217445Y-36817986D01*
X195366466Y-37013239D01*
X196508254Y-37247105D01*
X197641512Y-37519318D01*
X198764952Y-37829569D01*
X199877298Y-38177505D01*
X200977286Y-38562731D01*
X202063667Y-38984810D01*
X203135205Y-39443261D01*
X204190685Y-39937565D01*
X205228906Y-40467159D01*
X206248689Y-41031441D01*
X207248876Y-41629772D01*
X208228330Y-42261470D01*
X209185939Y-42925818D01*
X210120614Y-43622062D01*
X211031293Y-44349411D01*
X211916943Y-45107037D01*
X212776556Y-45894081D01*
X213609157Y-46709648D01*
X214413797Y-47552812D01*
X215189567Y-48422614D01*
X215644178Y-48968291D01*
X215648221Y-48973143D01*
X215676008Y-49037250D01*
X215664725Y-49106203D01*
X215617955Y-49158110D01*
X215550547Y-49176491D01*
X215492970Y-49161042D01*
X215393611Y-49106128D01*
X215393607Y-49106126D01*
X215120952Y-48993190D01*
X215060841Y-48968291D01*
X215060838Y-48968290D01*
X214714732Y-48868578D01*
X214714723Y-48868576D01*
X214359632Y-48808244D01*
X214359620Y-48808242D01*
X214000000Y-48788047D01*
X213640379Y-48808242D01*
X213640367Y-48808244D01*
X213285276Y-48868576D01*
X213285267Y-48868578D01*
X212939161Y-48968290D01*
X212606392Y-49106126D01*
X212606388Y-49106128D01*
X212291137Y-49280362D01*
X211997378Y-49488795D01*
X211728806Y-49728806D01*
X211488795Y-49997378D01*
X211280362Y-50291137D01*
X211106128Y-50606388D01*
X211106126Y-50606392D01*
X210968290Y-50939161D01*
X210868578Y-51285267D01*
X210868576Y-51285276D01*
X210808244Y-51640367D01*
X210808242Y-51640379D01*
X210788047Y-52000000D01*
X210808242Y-52359620D01*
X210808244Y-52359632D01*
X210868576Y-52714723D01*
X210868578Y-52714732D01*
X210968290Y-53060838D01*
X211106126Y-53393607D01*
X211106128Y-53393611D01*
X211106130Y-53393614D01*
X211280362Y-53708862D01*
X211488794Y-54002620D01*
X211728806Y-54271194D01*
X211997380Y-54511206D01*
X212291138Y-54719638D01*
X212606386Y-54893870D01*
X212606388Y-54893871D01*
X212606392Y-54893873D01*
X212733915Y-54946694D01*
X212939159Y-55031709D01*
X213285273Y-55131423D01*
X213640375Y-55191757D01*
X214000000Y-55211953D01*
X214359625Y-55191757D01*
X214714727Y-55131423D01*
X215060841Y-55031709D01*
X215393614Y-54893870D01*
X215708862Y-54719638D01*
X216002620Y-54511206D01*
X216271194Y-54271194D01*
X216511206Y-54002620D01*
X216719638Y-53708862D01*
X216893870Y-53393614D01*
X217031709Y-53060841D01*
X217131423Y-52714727D01*
X217191757Y-52359625D01*
X217211953Y-52000000D01*
X217191757Y-51640375D01*
X217135625Y-51310004D01*
X217143802Y-51240615D01*
X217188196Y-51186662D01*
X217254711Y-51165274D01*
X217322231Y-51183243D01*
X217360669Y-51219887D01*
X217986798Y-52148015D01*
X218605672Y-53135622D01*
X219190910Y-54143526D01*
X219741848Y-55170580D01*
X220257860Y-56215618D01*
X220738360Y-57277452D01*
X221182801Y-58354878D01*
X221590679Y-59446669D01*
X221961530Y-60551587D01*
X222294933Y-61668375D01*
X222590509Y-62795765D01*
X222847923Y-63932475D01*
X223066881Y-65077215D01*
X223247136Y-66228685D01*
X223388482Y-67385574D01*
X223490759Y-68546571D01*
X223553851Y-69710354D01*
X223577685Y-70875603D01*
X223562236Y-72040993D01*
X223507519Y-73205201D01*
X223413598Y-74366903D01*
X223280580Y-75524780D01*
X223108615Y-76677516D01*
X222897898Y-77823802D01*
X222648670Y-78962336D01*
X222361213Y-80091823D01*
X222035854Y-81210981D01*
X221672963Y-82318538D01*
X221272951Y-83413236D01*
X220836274Y-84493831D01*
X220363426Y-85559096D01*
X219854947Y-86607820D01*
X219311413Y-87638811D01*
X218733442Y-88650899D01*
X218121690Y-89642934D01*
X217476852Y-90613788D01*
X217359609Y-90778015D01*
X217304636Y-90821140D01*
X217235074Y-90827698D01*
X217173010Y-90795607D01*
X217138148Y-90735056D01*
X217136440Y-90685196D01*
X217148573Y-90613788D01*
X217191757Y-90359625D01*
X217211953Y-90000000D01*
X217191757Y-89640375D01*
X217131423Y-89285273D01*
X217031709Y-88939159D01*
X216912308Y-88650899D01*
X216893873Y-88606392D01*
X216893871Y-88606388D01*
X216719637Y-88291137D01*
X216511206Y-87997380D01*
X216271194Y-87728806D01*
X216002620Y-87488794D01*
X215708862Y-87280362D01*
X215393611Y-87106128D01*
X215393607Y-87106126D01*
X215120952Y-86993190D01*
X215060841Y-86968291D01*
X215060838Y-86968290D01*
X214714732Y-86868578D01*
X214714723Y-86868576D01*
X214359632Y-86808244D01*
X214359620Y-86808242D01*
X214000000Y-86788047D01*
X213640379Y-86808242D01*
X213640367Y-86808244D01*
X213285276Y-86868576D01*
X213285267Y-86868578D01*
X212939161Y-86968290D01*
X212606392Y-87106126D01*
X212606388Y-87106128D01*
X212291137Y-87280362D01*
X211997378Y-87488795D01*
X211728806Y-87728806D01*
X211488795Y-87997378D01*
X211280362Y-88291137D01*
X211106128Y-88606388D01*
X211106126Y-88606392D01*
X210968290Y-88939161D01*
X210868578Y-89285267D01*
X210868576Y-89285276D01*
X210808244Y-89640367D01*
X210808242Y-89640379D01*
X210788047Y-90000000D01*
X210808242Y-90359620D01*
X210808244Y-90359632D01*
X210868576Y-90714723D01*
X210868578Y-90714732D01*
X210968290Y-91060838D01*
X211106126Y-91393607D01*
X211106128Y-91393611D01*
X211106130Y-91393614D01*
X211280362Y-91708862D01*
X211488794Y-92002620D01*
X211728806Y-92271194D01*
X211997380Y-92511206D01*
X212291138Y-92719638D01*
X212606386Y-92893870D01*
X212606388Y-92893871D01*
X212606392Y-92893873D01*
X212733915Y-92946694D01*
X212939159Y-93031709D01*
X213285273Y-93131423D01*
X213640375Y-93191757D01*
X214000000Y-93211953D01*
X214359625Y-93191757D01*
X214714727Y-93131423D01*
X215060841Y-93031709D01*
X215393614Y-92893870D01*
X215492803Y-92839049D01*
X215560998Y-92823849D01*
X215626586Y-92847931D01*
X215668743Y-92903650D01*
X215674083Y-92973316D01*
X215648622Y-93026260D01*
X215351336Y-93388365D01*
X214581846Y-94263726D01*
X213783291Y-95112658D01*
X212956581Y-95934194D01*
X212102652Y-96727403D01*
X211222477Y-97491382D01*
X210429984Y-98133729D01*
X210365508Y-98160649D01*
X210351931Y-98161398D01*
X209103005Y-98161669D01*
X209035961Y-98141999D01*
X208990195Y-98089205D01*
X208980236Y-98020049D01*
X208996059Y-97976503D01*
X208995730Y-97976339D01*
X208997171Y-97973443D01*
X208997559Y-97972378D01*
X208998290Y-97971197D01*
X209095344Y-97776287D01*
X209095349Y-97776274D01*
X209154941Y-97566830D01*
X209168084Y-97425000D01*
X208469000Y-97425000D01*
X208401961Y-97405315D01*
X208356206Y-97352511D01*
X208345000Y-97301000D01*
X208345000Y-97049000D01*
X208364685Y-96981961D01*
X208417489Y-96936206D01*
X208469000Y-96925000D01*
X209168084Y-96925000D01*
X209168084Y-96924999D01*
X209154941Y-96783169D01*
X209095349Y-96573725D01*
X209095344Y-96573712D01*
X208998284Y-96378791D01*
X208867054Y-96205014D01*
X208706131Y-96058314D01*
X208520987Y-95943677D01*
X208520985Y-95943676D01*
X208317931Y-95865013D01*
X208317921Y-95865010D01*
X208245001Y-95851378D01*
X208245000Y-95851379D01*
X208245000Y-96462952D01*
X208225315Y-96529991D01*
X208172511Y-96575746D01*
X208103353Y-96585690D01*
X208090563Y-96583158D01*
X208082109Y-96581017D01*
X207965700Y-96571371D01*
X207927610Y-96581017D01*
X207899438Y-96588150D01*
X207829619Y-96585525D01*
X207772302Y-96545569D01*
X207745686Y-96480968D01*
X207745000Y-96467945D01*
X207745000Y-95851379D01*
X207744998Y-95851378D01*
X207672078Y-95865010D01*
X207672068Y-95865013D01*
X207469014Y-95943676D01*
X207469012Y-95943677D01*
X207283869Y-96058314D01*
X207283868Y-96058314D01*
X207122945Y-96205014D01*
X206991715Y-96378791D01*
X206894655Y-96573712D01*
X206894650Y-96573725D01*
X206835058Y-96783169D01*
X206821915Y-96924999D01*
X206821916Y-96925000D01*
X207521000Y-96925000D01*
X207588039Y-96944685D01*
X207633794Y-96997489D01*
X207645000Y-97049000D01*
X207645000Y-97301000D01*
X207625315Y-97368039D01*
X207572511Y-97413794D01*
X207521000Y-97425000D01*
X206821916Y-97425000D01*
X206835058Y-97566830D01*
X206894650Y-97776274D01*
X206894655Y-97776287D01*
X206991714Y-97971207D01*
X206992749Y-97972878D01*
X206992999Y-97973787D01*
X206994270Y-97976339D01*
X206993770Y-97976587D01*
X207011301Y-98040240D01*
X206990490Y-98106938D01*
X206936923Y-98151797D01*
X206887346Y-98162151D01*
X203642270Y-98162856D01*
X203575226Y-98143186D01*
X203529460Y-98090392D01*
X203519501Y-98021236D01*
X203535802Y-97976375D01*
X203535730Y-97976339D01*
X203536047Y-97975702D01*
X203536823Y-97973567D01*
X203538288Y-97971200D01*
X203635344Y-97776287D01*
X203635349Y-97776274D01*
X203694941Y-97566830D01*
X203708084Y-97425000D01*
X203009000Y-97425000D01*
X202941961Y-97405315D01*
X202896206Y-97352511D01*
X202885000Y-97301000D01*
X202885000Y-97049000D01*
X202904685Y-96981961D01*
X202957489Y-96936206D01*
X203009000Y-96925000D01*
X203708084Y-96925000D01*
X203708084Y-96924999D01*
X203694941Y-96783169D01*
X203635349Y-96573725D01*
X203635344Y-96573712D01*
X203538284Y-96378791D01*
X203407054Y-96205014D01*
X203246131Y-96058314D01*
X203060987Y-95943677D01*
X203060985Y-95943676D01*
X202857931Y-95865013D01*
X202857921Y-95865010D01*
X202785001Y-95851378D01*
X202785000Y-95851379D01*
X202785000Y-96462952D01*
X202765315Y-96529991D01*
X202712511Y-96575746D01*
X202643353Y-96585690D01*
X202630563Y-96583158D01*
X202622109Y-96581017D01*
X202505700Y-96571371D01*
X202467610Y-96581017D01*
X202439438Y-96588150D01*
X202369619Y-96585525D01*
X202312302Y-96545569D01*
X202285686Y-96480968D01*
X202285000Y-96467945D01*
X202285000Y-95851379D01*
X202284998Y-95851378D01*
X202212078Y-95865010D01*
X202212068Y-95865013D01*
X202009014Y-95943676D01*
X202009012Y-95943677D01*
X201823869Y-96058314D01*
X201823868Y-96058314D01*
X201662945Y-96205014D01*
X201531715Y-96378791D01*
X201434655Y-96573712D01*
X201434650Y-96573725D01*
X201375058Y-96783169D01*
X201361915Y-96924999D01*
X201361916Y-96925000D01*
X202061000Y-96925000D01*
X202128039Y-96944685D01*
X202173794Y-96997489D01*
X202185000Y-97049000D01*
X202185000Y-97301000D01*
X202165315Y-97368039D01*
X202112511Y-97413794D01*
X202061000Y-97425000D01*
X201361916Y-97425000D01*
X201375058Y-97566830D01*
X201434650Y-97776274D01*
X201434655Y-97776287D01*
X201531719Y-97971216D01*
X201533484Y-97974067D01*
X201533911Y-97975618D01*
X201534270Y-97976339D01*
X201534129Y-97976409D01*
X201552035Y-98041429D01*
X201531223Y-98108127D01*
X201477655Y-98152984D01*
X201428080Y-98163337D01*
X167659877Y-98170677D01*
X167592833Y-98151007D01*
X167581812Y-98143041D01*
X166789041Y-97501040D01*
X165908534Y-96737443D01*
X165054261Y-95944606D01*
X164227193Y-95123429D01*
X163428270Y-94274845D01*
X162658399Y-93399818D01*
X162504025Y-93211953D01*
X162351520Y-93026362D01*
X162324168Y-92962070D01*
X162335916Y-92893195D01*
X162383036Y-92841605D01*
X162450567Y-92823680D01*
X162507307Y-92839111D01*
X162606382Y-92893868D01*
X162606392Y-92893873D01*
X162733915Y-92946694D01*
X162939159Y-93031709D01*
X163285273Y-93131423D01*
X163640375Y-93191757D01*
X164000000Y-93211953D01*
X164359625Y-93191757D01*
X164714727Y-93131423D01*
X164789067Y-93110006D01*
X167578107Y-93110006D01*
X167598044Y-93350616D01*
X167657316Y-93584676D01*
X167754303Y-93805785D01*
X167869406Y-93981961D01*
X167886361Y-94007913D01*
X168049887Y-94185550D01*
X168240420Y-94333848D01*
X168452764Y-94448763D01*
X168681126Y-94527159D01*
X168919278Y-94566900D01*
X168919279Y-94566900D01*
X169103380Y-94566900D01*
X169170419Y-94586585D01*
X169216174Y-94639389D01*
X169226118Y-94708547D01*
X169207189Y-94758721D01*
X169086579Y-94943330D01*
X168995045Y-95152006D01*
X168939105Y-95372906D01*
X168939103Y-95372914D01*
X168920288Y-95599993D01*
X168920288Y-95600006D01*
X168939103Y-95827085D01*
X168939105Y-95827093D01*
X168995045Y-96047993D01*
X169086577Y-96256664D01*
X169086579Y-96256668D01*
X169166874Y-96379570D01*
X169694668Y-95851777D01*
X169755991Y-95818292D01*
X169825683Y-95823276D01*
X169881616Y-95865148D01*
X169886664Y-95872418D01*
X169922055Y-95927486D01*
X169922057Y-95927489D01*
X170029631Y-96020702D01*
X170036334Y-96026510D01*
X170034227Y-96028941D01*
X170069646Y-96069810D01*
X170079597Y-96138967D01*
X170050578Y-96202526D01*
X170044538Y-96209013D01*
X169519015Y-96734535D01*
X169519016Y-96734537D01*
X169545366Y-96755046D01*
X169545372Y-96755050D01*
X169745769Y-96863499D01*
X169745780Y-96863504D01*
X169961298Y-96937492D01*
X170186065Y-96975000D01*
X170413935Y-96975000D01*
X170638701Y-96937492D01*
X170854219Y-96863504D01*
X170854230Y-96863499D01*
X171054633Y-96755047D01*
X171080982Y-96734537D01*
X171080982Y-96734536D01*
X170555460Y-96209013D01*
X170521975Y-96147690D01*
X170526959Y-96077998D01*
X170564651Y-96027647D01*
X170563666Y-96026510D01*
X170570369Y-96020702D01*
X170677943Y-95927489D01*
X170713334Y-95872418D01*
X170766136Y-95826664D01*
X170835294Y-95816720D01*
X170898850Y-95845744D01*
X170905330Y-95851777D01*
X171433125Y-96379571D01*
X171513420Y-96256669D01*
X171604954Y-96047993D01*
X171660894Y-95827093D01*
X171660896Y-95827085D01*
X171679712Y-95600006D01*
X171679712Y-95600002D01*
X173513202Y-95600002D01*
X173532751Y-95823444D01*
X173532753Y-95823455D01*
X173590803Y-96040102D01*
X173590805Y-96040106D01*
X173590806Y-96040110D01*
X173609329Y-96079833D01*
X173685600Y-96243398D01*
X173685601Y-96243399D01*
X173814256Y-96427137D01*
X173972863Y-96585744D01*
X174156601Y-96714399D01*
X174359890Y-96809194D01*
X174359896Y-96809195D01*
X174359897Y-96809196D01*
X174412041Y-96823167D01*
X174576550Y-96867248D01*
X174736157Y-96881211D01*
X174799998Y-96886797D01*
X174800000Y-96886797D01*
X174800002Y-96886797D01*
X174855862Y-96881909D01*
X175023450Y-96867248D01*
X175240110Y-96809194D01*
X175443399Y-96714399D01*
X175627137Y-96585744D01*
X175785744Y-96427137D01*
X175914399Y-96243399D01*
X176009194Y-96040110D01*
X176067248Y-95823450D01*
X176081909Y-95655862D01*
X176086797Y-95600002D01*
X176086797Y-95599997D01*
X176067248Y-95376555D01*
X176067248Y-95376550D01*
X176009194Y-95159890D01*
X175914399Y-94956602D01*
X175914397Y-94956599D01*
X175914396Y-94956597D01*
X175785743Y-94772861D01*
X175783479Y-94770597D01*
X175782799Y-94769352D01*
X175782263Y-94768713D01*
X175782391Y-94768605D01*
X175749994Y-94709274D01*
X175754978Y-94639582D01*
X175796850Y-94583649D01*
X175862314Y-94559232D01*
X175891564Y-94560606D01*
X175929278Y-94566900D01*
X175929281Y-94566900D01*
X176170721Y-94566900D01*
X176170722Y-94566900D01*
X176408874Y-94527159D01*
X176637236Y-94448763D01*
X176849580Y-94333848D01*
X177040113Y-94185550D01*
X177203639Y-94007913D01*
X177335697Y-93805784D01*
X177432684Y-93584676D01*
X177491955Y-93350620D01*
X177511893Y-93110006D01*
X178178107Y-93110006D01*
X178198044Y-93350616D01*
X178257316Y-93584676D01*
X178354303Y-93805785D01*
X178469406Y-93981961D01*
X178486361Y-94007913D01*
X178649887Y-94185550D01*
X178840420Y-94333848D01*
X179052764Y-94448763D01*
X179281126Y-94527159D01*
X179519278Y-94566900D01*
X179519279Y-94566900D01*
X179703380Y-94566900D01*
X179770419Y-94586585D01*
X179816174Y-94639389D01*
X179826118Y-94708547D01*
X179807189Y-94758721D01*
X179686579Y-94943330D01*
X179595045Y-95152006D01*
X179539105Y-95372906D01*
X179539103Y-95372914D01*
X179520288Y-95599993D01*
X179520288Y-95600006D01*
X179539103Y-95827085D01*
X179539105Y-95827093D01*
X179595045Y-96047993D01*
X179686577Y-96256664D01*
X179686579Y-96256668D01*
X179766874Y-96379570D01*
X180294668Y-95851777D01*
X180355991Y-95818292D01*
X180425683Y-95823276D01*
X180481616Y-95865148D01*
X180486664Y-95872418D01*
X180522055Y-95927486D01*
X180522057Y-95927489D01*
X180629631Y-96020702D01*
X180636334Y-96026510D01*
X180634227Y-96028941D01*
X180669646Y-96069810D01*
X180679597Y-96138967D01*
X180650578Y-96202526D01*
X180644538Y-96209013D01*
X180119015Y-96734535D01*
X180119016Y-96734537D01*
X180145366Y-96755046D01*
X180145372Y-96755050D01*
X180345769Y-96863499D01*
X180345780Y-96863504D01*
X180561298Y-96937492D01*
X180786065Y-96975000D01*
X181013935Y-96975000D01*
X181238701Y-96937492D01*
X181454219Y-96863504D01*
X181454230Y-96863499D01*
X181654633Y-96755047D01*
X181680982Y-96734537D01*
X181680982Y-96734536D01*
X181155460Y-96209013D01*
X181121975Y-96147690D01*
X181126959Y-96077998D01*
X181164651Y-96027647D01*
X181163666Y-96026510D01*
X181170369Y-96020702D01*
X181277943Y-95927489D01*
X181313334Y-95872418D01*
X181366136Y-95826664D01*
X181435294Y-95816720D01*
X181498850Y-95845744D01*
X181505330Y-95851777D01*
X182033125Y-96379571D01*
X182113420Y-96256669D01*
X182204954Y-96047993D01*
X182260894Y-95827093D01*
X182260896Y-95827085D01*
X182279712Y-95600006D01*
X182279712Y-95600002D01*
X184113202Y-95600002D01*
X184132751Y-95823444D01*
X184132753Y-95823455D01*
X184190803Y-96040102D01*
X184190805Y-96040106D01*
X184190806Y-96040110D01*
X184209329Y-96079833D01*
X184285600Y-96243398D01*
X184285601Y-96243399D01*
X184414256Y-96427137D01*
X184572863Y-96585744D01*
X184756601Y-96714399D01*
X184959890Y-96809194D01*
X184959896Y-96809195D01*
X184959897Y-96809196D01*
X185012041Y-96823167D01*
X185176550Y-96867248D01*
X185336157Y-96881211D01*
X185399998Y-96886797D01*
X185400000Y-96886797D01*
X185400002Y-96886797D01*
X185455862Y-96881909D01*
X185623450Y-96867248D01*
X185840110Y-96809194D01*
X186043399Y-96714399D01*
X186227137Y-96585744D01*
X186385744Y-96427137D01*
X186514399Y-96243399D01*
X186609194Y-96040110D01*
X186667248Y-95823450D01*
X186681909Y-95655862D01*
X186686797Y-95600002D01*
X186686797Y-95599997D01*
X186667248Y-95376555D01*
X186667248Y-95376550D01*
X186609194Y-95159890D01*
X186514399Y-94956602D01*
X186514397Y-94956599D01*
X186514396Y-94956597D01*
X186385743Y-94772861D01*
X186383479Y-94770597D01*
X186382799Y-94769352D01*
X186382263Y-94768713D01*
X186382391Y-94768605D01*
X186349994Y-94709274D01*
X186354978Y-94639582D01*
X186396850Y-94583649D01*
X186462314Y-94559232D01*
X186491564Y-94560606D01*
X186529278Y-94566900D01*
X186529281Y-94566900D01*
X186770721Y-94566900D01*
X186770722Y-94566900D01*
X187008874Y-94527159D01*
X187237236Y-94448763D01*
X187449580Y-94333848D01*
X187640113Y-94185550D01*
X187803639Y-94007913D01*
X187935697Y-93805784D01*
X188032684Y-93584676D01*
X188091955Y-93350620D01*
X188111893Y-93110006D01*
X188778107Y-93110006D01*
X188798044Y-93350616D01*
X188857316Y-93584676D01*
X188954303Y-93805785D01*
X189069406Y-93981961D01*
X189086361Y-94007913D01*
X189249887Y-94185550D01*
X189440420Y-94333848D01*
X189652764Y-94448763D01*
X189881126Y-94527159D01*
X190119278Y-94566900D01*
X190119279Y-94566900D01*
X190303380Y-94566900D01*
X190370419Y-94586585D01*
X190416174Y-94639389D01*
X190426118Y-94708547D01*
X190407189Y-94758721D01*
X190286579Y-94943330D01*
X190195045Y-95152006D01*
X190139105Y-95372906D01*
X190139103Y-95372914D01*
X190120288Y-95599993D01*
X190120288Y-95600006D01*
X190139103Y-95827085D01*
X190139105Y-95827093D01*
X190195045Y-96047993D01*
X190286577Y-96256664D01*
X190286579Y-96256668D01*
X190366874Y-96379570D01*
X190894668Y-95851777D01*
X190955991Y-95818292D01*
X191025683Y-95823276D01*
X191081616Y-95865148D01*
X191086664Y-95872418D01*
X191122055Y-95927486D01*
X191122057Y-95927489D01*
X191229631Y-96020702D01*
X191236334Y-96026510D01*
X191234227Y-96028941D01*
X191269646Y-96069810D01*
X191279597Y-96138967D01*
X191250578Y-96202526D01*
X191244538Y-96209013D01*
X190719015Y-96734535D01*
X190719016Y-96734537D01*
X190745366Y-96755046D01*
X190745372Y-96755050D01*
X190945769Y-96863499D01*
X190945780Y-96863504D01*
X191161298Y-96937492D01*
X191386065Y-96975000D01*
X191613935Y-96975000D01*
X191838701Y-96937492D01*
X192054219Y-96863504D01*
X192054230Y-96863499D01*
X192254633Y-96755047D01*
X192280982Y-96734537D01*
X192280982Y-96734536D01*
X191755460Y-96209013D01*
X191721975Y-96147690D01*
X191726959Y-96077998D01*
X191764651Y-96027647D01*
X191763666Y-96026510D01*
X191770369Y-96020702D01*
X191877943Y-95927489D01*
X191913334Y-95872418D01*
X191966136Y-95826664D01*
X192035294Y-95816720D01*
X192098850Y-95845744D01*
X192105330Y-95851777D01*
X192633125Y-96379571D01*
X192713420Y-96256669D01*
X192804954Y-96047993D01*
X192860894Y-95827093D01*
X192860896Y-95827085D01*
X192879712Y-95600006D01*
X192879712Y-95600002D01*
X194713202Y-95600002D01*
X194732751Y-95823444D01*
X194732753Y-95823455D01*
X194790803Y-96040102D01*
X194790805Y-96040106D01*
X194790806Y-96040110D01*
X194809329Y-96079833D01*
X194885600Y-96243398D01*
X194885601Y-96243399D01*
X195014256Y-96427137D01*
X195172863Y-96585744D01*
X195356601Y-96714399D01*
X195559890Y-96809194D01*
X195559896Y-96809195D01*
X195559897Y-96809196D01*
X195612041Y-96823167D01*
X195776550Y-96867248D01*
X195936157Y-96881211D01*
X195999998Y-96886797D01*
X196000000Y-96886797D01*
X196000002Y-96886797D01*
X196055862Y-96881909D01*
X196223450Y-96867248D01*
X196440110Y-96809194D01*
X196643399Y-96714399D01*
X196827137Y-96585744D01*
X196985744Y-96427137D01*
X197114399Y-96243399D01*
X197209194Y-96040110D01*
X197267248Y-95823450D01*
X197281909Y-95655862D01*
X197286797Y-95600002D01*
X197286797Y-95599997D01*
X197267248Y-95376555D01*
X197267248Y-95376550D01*
X197209194Y-95159890D01*
X197114399Y-94956602D01*
X197114397Y-94956599D01*
X197114396Y-94956597D01*
X196985743Y-94772861D01*
X196983479Y-94770597D01*
X196982799Y-94769352D01*
X196982263Y-94768713D01*
X196982391Y-94768605D01*
X196949994Y-94709274D01*
X196954978Y-94639582D01*
X196996850Y-94583649D01*
X197062314Y-94559232D01*
X197091564Y-94560606D01*
X197129278Y-94566900D01*
X197129281Y-94566900D01*
X197370721Y-94566900D01*
X197370722Y-94566900D01*
X197608874Y-94527159D01*
X197837236Y-94448763D01*
X197878219Y-94426584D01*
X201794999Y-94426584D01*
X201810191Y-94580834D01*
X201870233Y-94778766D01*
X201967728Y-94961166D01*
X201967732Y-94961173D01*
X202098944Y-95121055D01*
X202258826Y-95252267D01*
X202258833Y-95252271D01*
X202441233Y-95349766D01*
X202595000Y-95396410D01*
X202595000Y-94806955D01*
X202614685Y-94739916D01*
X202667489Y-94694161D01*
X202736647Y-94684217D01*
X202761404Y-94690431D01*
X202787694Y-94700000D01*
X202787697Y-94700000D01*
X202902303Y-94700000D01*
X202902306Y-94700000D01*
X202928592Y-94690432D01*
X202998319Y-94686002D01*
X203059375Y-94719973D01*
X203092372Y-94781560D01*
X203095000Y-94806955D01*
X203095000Y-95396410D01*
X203248766Y-95349766D01*
X203431166Y-95252271D01*
X203431173Y-95252267D01*
X203591055Y-95121055D01*
X203722267Y-94961173D01*
X203722271Y-94961166D01*
X203819766Y-94778766D01*
X203879808Y-94580834D01*
X203894999Y-94426584D01*
X206634999Y-94426584D01*
X206650191Y-94580834D01*
X206710233Y-94778766D01*
X206807728Y-94961166D01*
X206807732Y-94961173D01*
X206938944Y-95121055D01*
X207098826Y-95252267D01*
X207098833Y-95252271D01*
X207281233Y-95349766D01*
X207435000Y-95396410D01*
X207435000Y-94806955D01*
X207454685Y-94739916D01*
X207507489Y-94694161D01*
X207576647Y-94684217D01*
X207601404Y-94690431D01*
X207627694Y-94700000D01*
X207627697Y-94700000D01*
X207742303Y-94700000D01*
X207742306Y-94700000D01*
X207768592Y-94690432D01*
X207838319Y-94686002D01*
X207899375Y-94719973D01*
X207932372Y-94781560D01*
X207935000Y-94806955D01*
X207935000Y-95396410D01*
X208088766Y-95349766D01*
X208271166Y-95252271D01*
X208271173Y-95252267D01*
X208431055Y-95121055D01*
X208562267Y-94961173D01*
X208562271Y-94961166D01*
X208659766Y-94778766D01*
X208719808Y-94580834D01*
X208734999Y-94426584D01*
X208735000Y-94425000D01*
X208134000Y-94425000D01*
X208066961Y-94405315D01*
X208021206Y-94352511D01*
X208010000Y-94301000D01*
X208010000Y-94049000D01*
X208029685Y-93981961D01*
X208082489Y-93936206D01*
X208134000Y-93925000D01*
X208735000Y-93925000D01*
X208734999Y-93923415D01*
X208719808Y-93769165D01*
X208659766Y-93571233D01*
X208562271Y-93388833D01*
X208562267Y-93388826D01*
X208431055Y-93228944D01*
X208271173Y-93097732D01*
X208271166Y-93097728D01*
X208088763Y-93000232D01*
X207935000Y-92953587D01*
X207935000Y-93543044D01*
X207915315Y-93610083D01*
X207862511Y-93655838D01*
X207793353Y-93665782D01*
X207768593Y-93659567D01*
X207742308Y-93650000D01*
X207742306Y-93650000D01*
X207627694Y-93650000D01*
X207627691Y-93650000D01*
X207601407Y-93659567D01*
X207531678Y-93663996D01*
X207470623Y-93630024D01*
X207437628Y-93568436D01*
X207435000Y-93543044D01*
X207435000Y-92953587D01*
X207281236Y-93000232D01*
X207098833Y-93097728D01*
X207098826Y-93097732D01*
X206938944Y-93228944D01*
X206807732Y-93388826D01*
X206807728Y-93388833D01*
X206710233Y-93571233D01*
X206650191Y-93769165D01*
X206634999Y-93923415D01*
X206635000Y-93924999D01*
X206635000Y-93925000D01*
X207236000Y-93925000D01*
X207303039Y-93944685D01*
X207348794Y-93997489D01*
X207360000Y-94049000D01*
X207360000Y-94301000D01*
X207340315Y-94368039D01*
X207287511Y-94413794D01*
X207236000Y-94425000D01*
X206635000Y-94425000D01*
X206634999Y-94426584D01*
X203894999Y-94426584D01*
X203895000Y-94425000D01*
X203294000Y-94425000D01*
X203226961Y-94405315D01*
X203181206Y-94352511D01*
X203170000Y-94301000D01*
X203170000Y-94049000D01*
X203189685Y-93981961D01*
X203242489Y-93936206D01*
X203294000Y-93925000D01*
X203895000Y-93925000D01*
X203895000Y-93924999D01*
X203894999Y-93923415D01*
X203879808Y-93769165D01*
X203878963Y-93766380D01*
X203878949Y-93764844D01*
X203878620Y-93763189D01*
X203878933Y-93763126D01*
X203878336Y-93696513D01*
X203915582Y-93637398D01*
X203978874Y-93607804D01*
X203982680Y-93607282D01*
X203985822Y-93606900D01*
X203985833Y-93606900D01*
X204152511Y-93565818D01*
X204304514Y-93486040D01*
X204433009Y-93372204D01*
X204530526Y-93230926D01*
X204591400Y-93070415D01*
X204612092Y-92900000D01*
X204611348Y-92893868D01*
X204591400Y-92729584D01*
X204555651Y-92635323D01*
X204530526Y-92569074D01*
X204433009Y-92427796D01*
X204304514Y-92313960D01*
X204304512Y-92313959D01*
X204304511Y-92313958D01*
X204152510Y-92234181D01*
X204152511Y-92234181D01*
X203985833Y-92193100D01*
X203814167Y-92193100D01*
X203647488Y-92234181D01*
X203647488Y-92234182D01*
X203607624Y-92255104D01*
X203539116Y-92268828D01*
X203492376Y-92255104D01*
X203452511Y-92234182D01*
X203452511Y-92234181D01*
X203285833Y-92193100D01*
X203114167Y-92193100D01*
X202947489Y-92234181D01*
X202795488Y-92313958D01*
X202666990Y-92427796D01*
X202569475Y-92569072D01*
X202569474Y-92569073D01*
X202508599Y-92729584D01*
X202487908Y-92900000D01*
X202487908Y-92900963D01*
X202487708Y-92901641D01*
X202487004Y-92907446D01*
X202486038Y-92907328D01*
X202468223Y-92968002D01*
X202422361Y-93010321D01*
X202258833Y-93097728D01*
X202258826Y-93097732D01*
X202098944Y-93228944D01*
X201967732Y-93388826D01*
X201967728Y-93388833D01*
X201870233Y-93571233D01*
X201810191Y-93769165D01*
X201794999Y-93923415D01*
X201795000Y-93924999D01*
X201795000Y-93925000D01*
X202396000Y-93925000D01*
X202463039Y-93944685D01*
X202508794Y-93997489D01*
X202520000Y-94049000D01*
X202520000Y-94301000D01*
X202500315Y-94368039D01*
X202447511Y-94413794D01*
X202396000Y-94425000D01*
X201795000Y-94425000D01*
X201794999Y-94426584D01*
X197878219Y-94426584D01*
X198049580Y-94333848D01*
X198240113Y-94185550D01*
X198403639Y-94007913D01*
X198535697Y-93805784D01*
X198632684Y-93584676D01*
X198691955Y-93350620D01*
X198711893Y-93110000D01*
X198711893Y-93109993D01*
X198694492Y-92899999D01*
X198691955Y-92869380D01*
X198632684Y-92635324D01*
X198535697Y-92414216D01*
X198403639Y-92212087D01*
X198240113Y-92034450D01*
X198049580Y-91886152D01*
X198049578Y-91886151D01*
X198049577Y-91886150D01*
X197837237Y-91771237D01*
X197837232Y-91771235D01*
X197608876Y-91692841D01*
X197450105Y-91666347D01*
X197370722Y-91653100D01*
X197129278Y-91653100D01*
X197069740Y-91663035D01*
X196891123Y-91692841D01*
X196662767Y-91771235D01*
X196662762Y-91771237D01*
X196450422Y-91886150D01*
X196259888Y-92034449D01*
X196096362Y-92212085D01*
X196096359Y-92212089D01*
X195964303Y-92414214D01*
X195867316Y-92635323D01*
X195808044Y-92869383D01*
X195788107Y-93109993D01*
X195788107Y-93110006D01*
X195808044Y-93350616D01*
X195867316Y-93584676D01*
X195964303Y-93805785D01*
X196079406Y-93981961D01*
X196096361Y-94007913D01*
X196193760Y-94113717D01*
X196224682Y-94176370D01*
X196216822Y-94245797D01*
X196172675Y-94299952D01*
X196106257Y-94321643D01*
X196091723Y-94321227D01*
X196000002Y-94313203D01*
X195999998Y-94313203D01*
X195776555Y-94332751D01*
X195776544Y-94332753D01*
X195559897Y-94390803D01*
X195559888Y-94390807D01*
X195356601Y-94485601D01*
X195356597Y-94485603D01*
X195172861Y-94614256D01*
X195014256Y-94772861D01*
X194885603Y-94956597D01*
X194885601Y-94956601D01*
X194790807Y-95159888D01*
X194790803Y-95159897D01*
X194732753Y-95376544D01*
X194732751Y-95376555D01*
X194713202Y-95599997D01*
X194713202Y-95600002D01*
X192879712Y-95600002D01*
X192879712Y-95599993D01*
X192860896Y-95372914D01*
X192860894Y-95372906D01*
X192804954Y-95152006D01*
X192713420Y-94943330D01*
X192633124Y-94820427D01*
X192105330Y-95348221D01*
X192044007Y-95381706D01*
X191974315Y-95376722D01*
X191918382Y-95334850D01*
X191913334Y-95327580D01*
X191877944Y-95272513D01*
X191877943Y-95272511D01*
X191770369Y-95179298D01*
X191770368Y-95179297D01*
X191763666Y-95173490D01*
X191765769Y-95171062D01*
X191730336Y-95130155D01*
X191720407Y-95060995D01*
X191749444Y-94997445D01*
X191755460Y-94990985D01*
X192280983Y-94465461D01*
X192254632Y-94444952D01*
X192254627Y-94444949D01*
X192054230Y-94336500D01*
X192054219Y-94336495D01*
X191838701Y-94262507D01*
X191613935Y-94225000D01*
X191476488Y-94225000D01*
X191409449Y-94205315D01*
X191363694Y-94152511D01*
X191353750Y-94083353D01*
X191382775Y-94019797D01*
X191385258Y-94017018D01*
X191393632Y-94007921D01*
X191393633Y-94007919D01*
X191393639Y-94007913D01*
X191525697Y-93805784D01*
X191622684Y-93584676D01*
X191681955Y-93350620D01*
X191701893Y-93110000D01*
X191701893Y-93109993D01*
X191684492Y-92899999D01*
X191681955Y-92869380D01*
X191622684Y-92635324D01*
X191525697Y-92414216D01*
X191393639Y-92212087D01*
X191230113Y-92034450D01*
X191039580Y-91886152D01*
X191039578Y-91886151D01*
X191039577Y-91886150D01*
X190827237Y-91771237D01*
X190827232Y-91771235D01*
X190598876Y-91692841D01*
X190440106Y-91666347D01*
X190360722Y-91653100D01*
X190119278Y-91653100D01*
X190059739Y-91663035D01*
X189881123Y-91692841D01*
X189652767Y-91771235D01*
X189652762Y-91771237D01*
X189440422Y-91886150D01*
X189249888Y-92034449D01*
X189086362Y-92212085D01*
X189086359Y-92212089D01*
X188954303Y-92414214D01*
X188857316Y-92635323D01*
X188798044Y-92869383D01*
X188778107Y-93109993D01*
X188778107Y-93110006D01*
X188111893Y-93110006D01*
X188111893Y-93110000D01*
X188111893Y-93109993D01*
X188094492Y-92899999D01*
X188091955Y-92869380D01*
X188032684Y-92635324D01*
X187935697Y-92414216D01*
X187803639Y-92212087D01*
X187640113Y-92034450D01*
X187449580Y-91886152D01*
X187449578Y-91886151D01*
X187449577Y-91886150D01*
X187237237Y-91771237D01*
X187237232Y-91771235D01*
X187008876Y-91692841D01*
X186850105Y-91666347D01*
X186770722Y-91653100D01*
X186529278Y-91653100D01*
X186469740Y-91663035D01*
X186291123Y-91692841D01*
X186062767Y-91771235D01*
X186062762Y-91771237D01*
X185850422Y-91886150D01*
X185659888Y-92034449D01*
X185496362Y-92212085D01*
X185496359Y-92212089D01*
X185364303Y-92414214D01*
X185267316Y-92635323D01*
X185208044Y-92869383D01*
X185188107Y-93109993D01*
X185188107Y-93110006D01*
X185208044Y-93350616D01*
X185267316Y-93584676D01*
X185364303Y-93805785D01*
X185479406Y-93981961D01*
X185496361Y-94007913D01*
X185593760Y-94113717D01*
X185624682Y-94176370D01*
X185616822Y-94245797D01*
X185572675Y-94299952D01*
X185506257Y-94321643D01*
X185491723Y-94321227D01*
X185400002Y-94313203D01*
X185399998Y-94313203D01*
X185176555Y-94332751D01*
X185176544Y-94332753D01*
X184959897Y-94390803D01*
X184959888Y-94390807D01*
X184756601Y-94485601D01*
X184756597Y-94485603D01*
X184572861Y-94614256D01*
X184414256Y-94772861D01*
X184285603Y-94956597D01*
X184285601Y-94956601D01*
X184190807Y-95159888D01*
X184190803Y-95159897D01*
X184132753Y-95376544D01*
X184132751Y-95376555D01*
X184113202Y-95599997D01*
X184113202Y-95600002D01*
X182279712Y-95600002D01*
X182279712Y-95599993D01*
X182260896Y-95372914D01*
X182260894Y-95372906D01*
X182204954Y-95152006D01*
X182113420Y-94943330D01*
X182033124Y-94820427D01*
X181505330Y-95348221D01*
X181444007Y-95381706D01*
X181374315Y-95376722D01*
X181318382Y-95334850D01*
X181313334Y-95327580D01*
X181277944Y-95272513D01*
X181277943Y-95272511D01*
X181170369Y-95179298D01*
X181170368Y-95179297D01*
X181163666Y-95173490D01*
X181165769Y-95171062D01*
X181130336Y-95130155D01*
X181120407Y-95060995D01*
X181149444Y-94997445D01*
X181155460Y-94990985D01*
X181680983Y-94465461D01*
X181654632Y-94444952D01*
X181654627Y-94444949D01*
X181454230Y-94336500D01*
X181454219Y-94336495D01*
X181238701Y-94262507D01*
X181013935Y-94225000D01*
X180876488Y-94225000D01*
X180809449Y-94205315D01*
X180763694Y-94152511D01*
X180753750Y-94083353D01*
X180782775Y-94019797D01*
X180785258Y-94017018D01*
X180793632Y-94007921D01*
X180793633Y-94007919D01*
X180793639Y-94007913D01*
X180925697Y-93805784D01*
X181022684Y-93584676D01*
X181081955Y-93350620D01*
X181101893Y-93110000D01*
X181101893Y-93109993D01*
X181084492Y-92899999D01*
X181081955Y-92869380D01*
X181022684Y-92635324D01*
X180925697Y-92414216D01*
X180793639Y-92212087D01*
X180630113Y-92034450D01*
X180439580Y-91886152D01*
X180439578Y-91886151D01*
X180439577Y-91886150D01*
X180227237Y-91771237D01*
X180227232Y-91771235D01*
X179998876Y-91692841D01*
X179840106Y-91666346D01*
X179760722Y-91653100D01*
X179519278Y-91653100D01*
X179459739Y-91663035D01*
X179281123Y-91692841D01*
X179052767Y-91771235D01*
X179052762Y-91771237D01*
X178840422Y-91886150D01*
X178649888Y-92034449D01*
X178486362Y-92212085D01*
X178486359Y-92212089D01*
X178354303Y-92414214D01*
X178257316Y-92635323D01*
X178198044Y-92869383D01*
X178178107Y-93109993D01*
X178178107Y-93110006D01*
X177511893Y-93110006D01*
X177511893Y-93110000D01*
X177511893Y-93109993D01*
X177494492Y-92899999D01*
X177491955Y-92869380D01*
X177432684Y-92635324D01*
X177335697Y-92414216D01*
X177203639Y-92212087D01*
X177040113Y-92034450D01*
X176849580Y-91886152D01*
X176849578Y-91886151D01*
X176849577Y-91886150D01*
X176637237Y-91771237D01*
X176637232Y-91771235D01*
X176408876Y-91692841D01*
X176250105Y-91666346D01*
X176170722Y-91653100D01*
X175929278Y-91653100D01*
X175869739Y-91663035D01*
X175691123Y-91692841D01*
X175462767Y-91771235D01*
X175462762Y-91771237D01*
X175250422Y-91886150D01*
X175059888Y-92034449D01*
X174896362Y-92212085D01*
X174896359Y-92212089D01*
X174764303Y-92414214D01*
X174667316Y-92635323D01*
X174608044Y-92869383D01*
X174588107Y-93109993D01*
X174588107Y-93110006D01*
X174608044Y-93350616D01*
X174667316Y-93584676D01*
X174764303Y-93805785D01*
X174879406Y-93981961D01*
X174896361Y-94007913D01*
X174993760Y-94113717D01*
X175024682Y-94176370D01*
X175016822Y-94245797D01*
X174972675Y-94299952D01*
X174906257Y-94321643D01*
X174891723Y-94321227D01*
X174800002Y-94313203D01*
X174799998Y-94313203D01*
X174576555Y-94332751D01*
X174576544Y-94332753D01*
X174359897Y-94390803D01*
X174359888Y-94390807D01*
X174156601Y-94485601D01*
X174156597Y-94485603D01*
X173972861Y-94614256D01*
X173814256Y-94772861D01*
X173685603Y-94956597D01*
X173685601Y-94956601D01*
X173590807Y-95159888D01*
X173590803Y-95159897D01*
X173532753Y-95376544D01*
X173532751Y-95376555D01*
X173513202Y-95599997D01*
X173513202Y-95600002D01*
X171679712Y-95600002D01*
X171679712Y-95599993D01*
X171660896Y-95372914D01*
X171660894Y-95372906D01*
X171604954Y-95152006D01*
X171513420Y-94943330D01*
X171433124Y-94820427D01*
X170905330Y-95348221D01*
X170844007Y-95381706D01*
X170774315Y-95376722D01*
X170718382Y-95334850D01*
X170713334Y-95327580D01*
X170677944Y-95272513D01*
X170677943Y-95272511D01*
X170570369Y-95179298D01*
X170570368Y-95179297D01*
X170563666Y-95173490D01*
X170565769Y-95171062D01*
X170530336Y-95130155D01*
X170520407Y-95060995D01*
X170549444Y-94997445D01*
X170555460Y-94990985D01*
X171080983Y-94465461D01*
X171054632Y-94444952D01*
X171054627Y-94444949D01*
X170854230Y-94336500D01*
X170854219Y-94336495D01*
X170638701Y-94262507D01*
X170413935Y-94225000D01*
X170276488Y-94225000D01*
X170209449Y-94205315D01*
X170163694Y-94152511D01*
X170153750Y-94083353D01*
X170182775Y-94019797D01*
X170185258Y-94017018D01*
X170193632Y-94007921D01*
X170193633Y-94007919D01*
X170193639Y-94007913D01*
X170325697Y-93805784D01*
X170422684Y-93584676D01*
X170481955Y-93350620D01*
X170501893Y-93110000D01*
X170501893Y-93109993D01*
X170484492Y-92899999D01*
X170481955Y-92869380D01*
X170422684Y-92635324D01*
X170325697Y-92414216D01*
X170193639Y-92212087D01*
X170030113Y-92034450D01*
X169839580Y-91886152D01*
X169839578Y-91886151D01*
X169839577Y-91886150D01*
X169627237Y-91771237D01*
X169627232Y-91771235D01*
X169398876Y-91692841D01*
X169240105Y-91666347D01*
X169160722Y-91653100D01*
X168919278Y-91653100D01*
X168859740Y-91663035D01*
X168681123Y-91692841D01*
X168452767Y-91771235D01*
X168452762Y-91771237D01*
X168240422Y-91886150D01*
X168049888Y-92034449D01*
X167886362Y-92212085D01*
X167886359Y-92212089D01*
X167754303Y-92414214D01*
X167657316Y-92635323D01*
X167598044Y-92869383D01*
X167578107Y-93109993D01*
X167578107Y-93110006D01*
X164789067Y-93110006D01*
X165060841Y-93031709D01*
X165393614Y-92893870D01*
X165708862Y-92719638D01*
X166002620Y-92511206D01*
X166271194Y-92271194D01*
X166511206Y-92002620D01*
X166719638Y-91708862D01*
X166893870Y-91393614D01*
X167031709Y-91060841D01*
X167131423Y-90714727D01*
X167191757Y-90359625D01*
X167211953Y-90000000D01*
X167191757Y-89640375D01*
X167131423Y-89285273D01*
X167031709Y-88939159D01*
X166912308Y-88650899D01*
X166893873Y-88606392D01*
X166893871Y-88606388D01*
X166719637Y-88291137D01*
X166511206Y-87997380D01*
X166271194Y-87728806D01*
X166002620Y-87488794D01*
X165708862Y-87280362D01*
X165708861Y-87280361D01*
X165393611Y-87106128D01*
X165393607Y-87106126D01*
X165120952Y-86993190D01*
X165060841Y-86968291D01*
X165060838Y-86968290D01*
X164714732Y-86868578D01*
X164714723Y-86868576D01*
X164359632Y-86808244D01*
X164359620Y-86808242D01*
X164000000Y-86788047D01*
X163640379Y-86808242D01*
X163640367Y-86808244D01*
X163285276Y-86868576D01*
X163285267Y-86868578D01*
X162939161Y-86968290D01*
X162606392Y-87106126D01*
X162606388Y-87106128D01*
X162291137Y-87280362D01*
X161997378Y-87488795D01*
X161728806Y-87728806D01*
X161488795Y-87997378D01*
X161280362Y-88291137D01*
X161106128Y-88606388D01*
X161106126Y-88606392D01*
X160968290Y-88939161D01*
X160868578Y-89285267D01*
X160868576Y-89285276D01*
X160808244Y-89640367D01*
X160808242Y-89640379D01*
X160788047Y-89999999D01*
X160808242Y-90359620D01*
X160808244Y-90359632D01*
X160863624Y-90685575D01*
X160855447Y-90754965D01*
X160811053Y-90808918D01*
X160744538Y-90830306D01*
X160677018Y-90812337D01*
X160640486Y-90778438D01*
X160531677Y-90626165D01*
X159886417Y-89655592D01*
X159274234Y-88663823D01*
X158695823Y-87651986D01*
X158151841Y-86621231D01*
X157642906Y-85572729D01*
X157169595Y-84507670D01*
X156761878Y-83500000D01*
X168000000Y-83500000D01*
X168000000Y-87500000D01*
X210000000Y-87500000D01*
X210000000Y-83500000D01*
X168000000Y-83500000D01*
X156761878Y-83500000D01*
X156732448Y-83427264D01*
X156331961Y-82332740D01*
X156288405Y-82200000D01*
X172387908Y-82200000D01*
X172408599Y-82370415D01*
X172431549Y-82430927D01*
X172469474Y-82530926D01*
X172566991Y-82672204D01*
X172695486Y-82786040D01*
X172695488Y-82786041D01*
X172847489Y-82865818D01*
X172847488Y-82865818D01*
X173014167Y-82906900D01*
X173185833Y-82906900D01*
X173352511Y-82865818D01*
X173504514Y-82786040D01*
X173633009Y-82672204D01*
X173730526Y-82530926D01*
X173791400Y-82370415D01*
X173812092Y-82200000D01*
X175787908Y-82200000D01*
X175808599Y-82370415D01*
X175831549Y-82430927D01*
X175869474Y-82530926D01*
X175966991Y-82672204D01*
X176095486Y-82786040D01*
X176095488Y-82786041D01*
X176247489Y-82865818D01*
X176247488Y-82865818D01*
X176414167Y-82906900D01*
X176585833Y-82906900D01*
X176752511Y-82865818D01*
X176904514Y-82786040D01*
X177033009Y-82672204D01*
X177130526Y-82530926D01*
X177191400Y-82370415D01*
X177212092Y-82200000D01*
X179387908Y-82200000D01*
X179408599Y-82370415D01*
X179431549Y-82430927D01*
X179469474Y-82530926D01*
X179566991Y-82672204D01*
X179695486Y-82786040D01*
X179695488Y-82786041D01*
X179847489Y-82865818D01*
X179847488Y-82865818D01*
X180014167Y-82906900D01*
X180185833Y-82906900D01*
X180352511Y-82865818D01*
X180504514Y-82786040D01*
X180633009Y-82672204D01*
X180730526Y-82530926D01*
X180791400Y-82370415D01*
X180812092Y-82200000D01*
X180799950Y-82100000D01*
X182987908Y-82100000D01*
X183008599Y-82270415D01*
X183069474Y-82430926D01*
X183069475Y-82430927D01*
X183138499Y-82530927D01*
X183166991Y-82572204D01*
X183295486Y-82686040D01*
X183295488Y-82686041D01*
X183447489Y-82765818D01*
X183447488Y-82765818D01*
X183614167Y-82806900D01*
X183785833Y-82806900D01*
X183952511Y-82765818D01*
X184104514Y-82686040D01*
X184233009Y-82572204D01*
X184330526Y-82430926D01*
X184391400Y-82270415D01*
X184399950Y-82200000D01*
X186487908Y-82200000D01*
X186508599Y-82370415D01*
X186531549Y-82430927D01*
X186569474Y-82530926D01*
X186666991Y-82672204D01*
X186795486Y-82786040D01*
X186795488Y-82786041D01*
X186947489Y-82865818D01*
X186947488Y-82865818D01*
X187114167Y-82906900D01*
X187285833Y-82906900D01*
X187452511Y-82865818D01*
X187604514Y-82786040D01*
X187733009Y-82672204D01*
X187830526Y-82530926D01*
X187891400Y-82370415D01*
X187912092Y-82200000D01*
X190887908Y-82200000D01*
X190908599Y-82370415D01*
X190931549Y-82430927D01*
X190969474Y-82530926D01*
X191066991Y-82672204D01*
X191195486Y-82786040D01*
X191195488Y-82786041D01*
X191347489Y-82865818D01*
X191347488Y-82865818D01*
X191514167Y-82906900D01*
X191685833Y-82906900D01*
X191852511Y-82865818D01*
X192004514Y-82786040D01*
X192133009Y-82672204D01*
X192230526Y-82530926D01*
X192291400Y-82370415D01*
X192312092Y-82200000D01*
X194887908Y-82200000D01*
X194908599Y-82370415D01*
X194931549Y-82430927D01*
X194969474Y-82530926D01*
X195066991Y-82672204D01*
X195195486Y-82786040D01*
X195195488Y-82786041D01*
X195347489Y-82865818D01*
X195347488Y-82865818D01*
X195514167Y-82906900D01*
X195685833Y-82906900D01*
X195852511Y-82865818D01*
X196004514Y-82786040D01*
X196133009Y-82672204D01*
X196230526Y-82530926D01*
X196291400Y-82370415D01*
X196312092Y-82200000D01*
X198387908Y-82200000D01*
X198408599Y-82370415D01*
X198431549Y-82430927D01*
X198469474Y-82530926D01*
X198566991Y-82672204D01*
X198695486Y-82786040D01*
X198695488Y-82786041D01*
X198847489Y-82865818D01*
X198847488Y-82865818D01*
X199014167Y-82906900D01*
X199185833Y-82906900D01*
X199352511Y-82865818D01*
X199504514Y-82786040D01*
X199633009Y-82672204D01*
X199730526Y-82530926D01*
X199791400Y-82370415D01*
X199812092Y-82200000D01*
X201887908Y-82200000D01*
X201908599Y-82370415D01*
X201931549Y-82430927D01*
X201969474Y-82530926D01*
X202066991Y-82672204D01*
X202195486Y-82786040D01*
X202195488Y-82786041D01*
X202347489Y-82865818D01*
X202347488Y-82865818D01*
X202514167Y-82906900D01*
X202685833Y-82906900D01*
X202852511Y-82865818D01*
X203004514Y-82786040D01*
X203133009Y-82672204D01*
X203230526Y-82530926D01*
X203291400Y-82370415D01*
X203312092Y-82200000D01*
X203291400Y-82029585D01*
X203230526Y-81869074D01*
X203133009Y-81727796D01*
X203004514Y-81613960D01*
X203004512Y-81613959D01*
X203004511Y-81613958D01*
X202852510Y-81534181D01*
X202852511Y-81534181D01*
X202685833Y-81493100D01*
X202514167Y-81493100D01*
X202347489Y-81534181D01*
X202195488Y-81613958D01*
X202066990Y-81727796D01*
X201969475Y-81869072D01*
X201969474Y-81869073D01*
X201908599Y-82029584D01*
X201887908Y-82199999D01*
X201887908Y-82200000D01*
X199812092Y-82200000D01*
X199791400Y-82029585D01*
X199730526Y-81869074D01*
X199633009Y-81727796D01*
X199504514Y-81613960D01*
X199504512Y-81613959D01*
X199504511Y-81613958D01*
X199352510Y-81534181D01*
X199352511Y-81534181D01*
X199185833Y-81493100D01*
X199014167Y-81493100D01*
X198847489Y-81534181D01*
X198695488Y-81613958D01*
X198566990Y-81727796D01*
X198469475Y-81869072D01*
X198469474Y-81869073D01*
X198408599Y-82029584D01*
X198387908Y-82199999D01*
X198387908Y-82200000D01*
X196312092Y-82200000D01*
X196291400Y-82029585D01*
X196230526Y-81869074D01*
X196133009Y-81727796D01*
X196004514Y-81613960D01*
X196004512Y-81613959D01*
X196004511Y-81613958D01*
X195852510Y-81534181D01*
X195852511Y-81534181D01*
X195685833Y-81493100D01*
X195514167Y-81493100D01*
X195347489Y-81534181D01*
X195195488Y-81613958D01*
X195066990Y-81727796D01*
X194969475Y-81869072D01*
X194969474Y-81869073D01*
X194908599Y-82029584D01*
X194887908Y-82199999D01*
X194887908Y-82200000D01*
X192312092Y-82200000D01*
X192291400Y-82029585D01*
X192230526Y-81869074D01*
X192133009Y-81727796D01*
X192004514Y-81613960D01*
X192004512Y-81613959D01*
X192004511Y-81613958D01*
X191852510Y-81534181D01*
X191852511Y-81534181D01*
X191685833Y-81493100D01*
X191514167Y-81493100D01*
X191347489Y-81534181D01*
X191195488Y-81613958D01*
X191066990Y-81727796D01*
X190969475Y-81869072D01*
X190969474Y-81869073D01*
X190908599Y-82029584D01*
X190887908Y-82199999D01*
X190887908Y-82200000D01*
X187912092Y-82200000D01*
X187891400Y-82029585D01*
X187830526Y-81869074D01*
X187733009Y-81727796D01*
X187604514Y-81613960D01*
X187604512Y-81613959D01*
X187604511Y-81613958D01*
X187452510Y-81534181D01*
X187452511Y-81534181D01*
X187285833Y-81493100D01*
X187114167Y-81493100D01*
X186947489Y-81534181D01*
X186795488Y-81613958D01*
X186666990Y-81727796D01*
X186569475Y-81869072D01*
X186569474Y-81869073D01*
X186508599Y-82029584D01*
X186487908Y-82199999D01*
X186487908Y-82200000D01*
X184399950Y-82200000D01*
X184412092Y-82100000D01*
X184391400Y-81929585D01*
X184330526Y-81769074D01*
X184233009Y-81627796D01*
X184104514Y-81513960D01*
X184104512Y-81513959D01*
X184104511Y-81513958D01*
X183952510Y-81434181D01*
X183952511Y-81434181D01*
X183785833Y-81393100D01*
X183614167Y-81393100D01*
X183447489Y-81434181D01*
X183295488Y-81513958D01*
X183166990Y-81627796D01*
X183069475Y-81769072D01*
X183069474Y-81769073D01*
X183008599Y-81929584D01*
X182987908Y-82099999D01*
X182987908Y-82100000D01*
X180799950Y-82100000D01*
X180791400Y-82029585D01*
X180730526Y-81869074D01*
X180633009Y-81727796D01*
X180504514Y-81613960D01*
X180504512Y-81613959D01*
X180504511Y-81613958D01*
X180352510Y-81534181D01*
X180352511Y-81534181D01*
X180185833Y-81493100D01*
X180014167Y-81493100D01*
X179847489Y-81534181D01*
X179695488Y-81613958D01*
X179566990Y-81727796D01*
X179469475Y-81869072D01*
X179469474Y-81869073D01*
X179408599Y-82029584D01*
X179387908Y-82199999D01*
X179387908Y-82200000D01*
X177212092Y-82200000D01*
X177191400Y-82029585D01*
X177130526Y-81869074D01*
X177033009Y-81727796D01*
X176904514Y-81613960D01*
X176904512Y-81613959D01*
X176904511Y-81613958D01*
X176752510Y-81534181D01*
X176752511Y-81534181D01*
X176585833Y-81493100D01*
X176414167Y-81493100D01*
X176247489Y-81534181D01*
X176095488Y-81613958D01*
X175966990Y-81727796D01*
X175869475Y-81869072D01*
X175869474Y-81869073D01*
X175808599Y-82029584D01*
X175787908Y-82199999D01*
X175787908Y-82200000D01*
X173812092Y-82200000D01*
X173791400Y-82029585D01*
X173730526Y-81869074D01*
X173633009Y-81727796D01*
X173504514Y-81613960D01*
X173504512Y-81613959D01*
X173504511Y-81613958D01*
X173352510Y-81534181D01*
X173352511Y-81534181D01*
X173185833Y-81493100D01*
X173014167Y-81493100D01*
X172847489Y-81534181D01*
X172695488Y-81613958D01*
X172566990Y-81727796D01*
X172469475Y-81869072D01*
X172469474Y-81869073D01*
X172408599Y-82029584D01*
X172387908Y-82199999D01*
X172387908Y-82200000D01*
X156288405Y-82200000D01*
X155968588Y-81225341D01*
X155642742Y-80106325D01*
X155354794Y-78976963D01*
X155105071Y-77838538D01*
X154893857Y-76692343D01*
X154721390Y-75539682D01*
X154623252Y-74688683D01*
X189076591Y-74688683D01*
X189097282Y-74859098D01*
X189153402Y-75007072D01*
X189158157Y-75019609D01*
X189255674Y-75160887D01*
X189384169Y-75274723D01*
X189458924Y-75313958D01*
X189536172Y-75354501D01*
X189536171Y-75354501D01*
X189702850Y-75395583D01*
X189874516Y-75395583D01*
X190041194Y-75354501D01*
X190175935Y-75283782D01*
X190244442Y-75270057D01*
X190291186Y-75283783D01*
X190447489Y-75365818D01*
X190447488Y-75365818D01*
X190614167Y-75406900D01*
X190785833Y-75406900D01*
X190952511Y-75365818D01*
X191005513Y-75338000D01*
X192073908Y-75338000D01*
X192094599Y-75508415D01*
X192155474Y-75668926D01*
X192252991Y-75810204D01*
X192381486Y-75924040D01*
X192381488Y-75924041D01*
X192533489Y-76003818D01*
X192533488Y-76003818D01*
X192700167Y-76044900D01*
X192871833Y-76044900D01*
X193038511Y-76003818D01*
X193190514Y-75924040D01*
X193217650Y-75900000D01*
X217133908Y-75900000D01*
X217154599Y-76070415D01*
X217215473Y-76230925D01*
X217215474Y-76230926D01*
X217312991Y-76372204D01*
X217441486Y-76486040D01*
X217441488Y-76486041D01*
X217593489Y-76565818D01*
X217593488Y-76565818D01*
X217760167Y-76606900D01*
X217931833Y-76606900D01*
X218098511Y-76565818D01*
X218250514Y-76486040D01*
X218379009Y-76372204D01*
X218476526Y-76230926D01*
X218537400Y-76070415D01*
X218558092Y-75900000D01*
X218537400Y-75729585D01*
X218476526Y-75569074D01*
X218379009Y-75427796D01*
X218250514Y-75313960D01*
X218250512Y-75313959D01*
X218250511Y-75313958D01*
X218098510Y-75234181D01*
X218098511Y-75234181D01*
X217931833Y-75193100D01*
X217760167Y-75193100D01*
X217593489Y-75234181D01*
X217441488Y-75313958D01*
X217312990Y-75427796D01*
X217215475Y-75569072D01*
X217215474Y-75569073D01*
X217154599Y-75729584D01*
X217133908Y-75899999D01*
X217133908Y-75900000D01*
X193217650Y-75900000D01*
X193319009Y-75810204D01*
X193416526Y-75668926D01*
X193477400Y-75508415D01*
X193498092Y-75338000D01*
X193477400Y-75167585D01*
X193474859Y-75160886D01*
X193425572Y-75030927D01*
X193416526Y-75007074D01*
X193319009Y-74865796D01*
X193190514Y-74751960D01*
X193190512Y-74751959D01*
X193190511Y-74751958D01*
X193038510Y-74672181D01*
X193038511Y-74672181D01*
X192871833Y-74631100D01*
X192700167Y-74631100D01*
X192533489Y-74672181D01*
X192381488Y-74751958D01*
X192252990Y-74865796D01*
X192155475Y-75007072D01*
X192155474Y-75007073D01*
X192094599Y-75167584D01*
X192073908Y-75337999D01*
X192073908Y-75338000D01*
X191005513Y-75338000D01*
X191104514Y-75286040D01*
X191233009Y-75172204D01*
X191330526Y-75030926D01*
X191391400Y-74870415D01*
X191412092Y-74700000D01*
X191391400Y-74529585D01*
X191330526Y-74369074D01*
X191233009Y-74227796D01*
X191104514Y-74113960D01*
X191104512Y-74113959D01*
X191104511Y-74113958D01*
X190952510Y-74034181D01*
X190952511Y-74034181D01*
X190785833Y-73993100D01*
X190614167Y-73993100D01*
X190447490Y-74034181D01*
X190312747Y-74104900D01*
X190244239Y-74118624D01*
X190197496Y-74104899D01*
X190041193Y-74022864D01*
X190041194Y-74022864D01*
X189874516Y-73981783D01*
X189702850Y-73981783D01*
X189536172Y-74022864D01*
X189384171Y-74102641D01*
X189255673Y-74216479D01*
X189158158Y-74357755D01*
X189158157Y-74357756D01*
X189097282Y-74518267D01*
X189076591Y-74688682D01*
X189076591Y-74688683D01*
X154623252Y-74688683D01*
X154587869Y-74381863D01*
X154493443Y-73220202D01*
X154470598Y-72738600D01*
X182126508Y-72738600D01*
X182147199Y-72909015D01*
X182208074Y-73069526D01*
X182208075Y-73069527D01*
X182301723Y-73205201D01*
X182305591Y-73210804D01*
X182434086Y-73324640D01*
X182440099Y-73327796D01*
X182586089Y-73404418D01*
X182586088Y-73404418D01*
X182752767Y-73445500D01*
X182924433Y-73445500D01*
X183091111Y-73404418D01*
X183243114Y-73324640D01*
X183371609Y-73210804D01*
X183469126Y-73069526D01*
X183530000Y-72909015D01*
X183550692Y-72738600D01*
X183544631Y-72688683D01*
X184976591Y-72688683D01*
X184997282Y-72859098D01*
X185058157Y-73019609D01*
X185058158Y-73019610D01*
X185155675Y-73160889D01*
X185160648Y-73166502D01*
X185158675Y-73168249D01*
X185189166Y-73216842D01*
X185188410Y-73286708D01*
X185169525Y-73320431D01*
X185171252Y-73321623D01*
X185069475Y-73469072D01*
X185069474Y-73469073D01*
X185008599Y-73629584D01*
X184987908Y-73799999D01*
X184987908Y-73800000D01*
X185008599Y-73970415D01*
X185063039Y-74113958D01*
X185069474Y-74130926D01*
X185166991Y-74272204D01*
X185295486Y-74386040D01*
X185295488Y-74386041D01*
X185447489Y-74465818D01*
X185447488Y-74465818D01*
X185614167Y-74506900D01*
X185785833Y-74506900D01*
X185952511Y-74465818D01*
X186104514Y-74386040D01*
X186233009Y-74272204D01*
X186330526Y-74130926D01*
X186391400Y-73970415D01*
X186412092Y-73800000D01*
X186395800Y-73665818D01*
X186391400Y-73629584D01*
X186352796Y-73527796D01*
X186330526Y-73469074D01*
X186235170Y-73330927D01*
X186233007Y-73327793D01*
X186228035Y-73322181D01*
X186230006Y-73320434D01*
X186199515Y-73271836D01*
X186200273Y-73201970D01*
X186219180Y-73168267D01*
X186217431Y-73167060D01*
X186244533Y-73127796D01*
X186319209Y-73019609D01*
X186326646Y-73000000D01*
X196287908Y-73000000D01*
X196308599Y-73170415D01*
X196347064Y-73271836D01*
X196369474Y-73330926D01*
X196396731Y-73370415D01*
X196464830Y-73469074D01*
X196466991Y-73472204D01*
X196595486Y-73586040D01*
X196678453Y-73629585D01*
X196747489Y-73665818D01*
X196747488Y-73665818D01*
X196914167Y-73706900D01*
X197085833Y-73706900D01*
X197252511Y-73665818D01*
X197404514Y-73586040D01*
X197533009Y-73472204D01*
X197630526Y-73330926D01*
X197680180Y-73200000D01*
X207487908Y-73200000D01*
X207508599Y-73370415D01*
X207569474Y-73530926D01*
X207569475Y-73530927D01*
X207664830Y-73669074D01*
X207666991Y-73672204D01*
X207795486Y-73786040D01*
X207878453Y-73829585D01*
X207947489Y-73865818D01*
X207947488Y-73865818D01*
X208114167Y-73906900D01*
X208285833Y-73906900D01*
X208452511Y-73865818D01*
X208604514Y-73786040D01*
X208733009Y-73672204D01*
X208782848Y-73600000D01*
X214833908Y-73600000D01*
X214854599Y-73770415D01*
X214906362Y-73906900D01*
X214915474Y-73930926D01*
X215012991Y-74072204D01*
X215141486Y-74186040D01*
X215141488Y-74186041D01*
X215293489Y-74265818D01*
X215293488Y-74265818D01*
X215460167Y-74306900D01*
X215631833Y-74306900D01*
X215798511Y-74265818D01*
X215950514Y-74186040D01*
X216079009Y-74072204D01*
X216128848Y-74000000D01*
X217133908Y-74000000D01*
X217154599Y-74170415D01*
X217206362Y-74306900D01*
X217215474Y-74330926D01*
X217312991Y-74472204D01*
X217441486Y-74586040D01*
X217441488Y-74586041D01*
X217593489Y-74665818D01*
X217593488Y-74665818D01*
X217760167Y-74706900D01*
X217931833Y-74706900D01*
X218098511Y-74665818D01*
X218250514Y-74586040D01*
X218379009Y-74472204D01*
X218476526Y-74330926D01*
X218537400Y-74170415D01*
X218558092Y-74000000D01*
X218541800Y-73865818D01*
X218537400Y-73829584D01*
X218514313Y-73768709D01*
X218476526Y-73669074D01*
X218379009Y-73527796D01*
X218250514Y-73413960D01*
X218250512Y-73413959D01*
X218250511Y-73413958D01*
X218098510Y-73334181D01*
X218098511Y-73334181D01*
X217931833Y-73293100D01*
X217760167Y-73293100D01*
X217593489Y-73334181D01*
X217441488Y-73413958D01*
X217312990Y-73527796D01*
X217215475Y-73669072D01*
X217215474Y-73669073D01*
X217154599Y-73829584D01*
X217133908Y-73999999D01*
X217133908Y-74000000D01*
X216128848Y-74000000D01*
X216176526Y-73930926D01*
X216237400Y-73770415D01*
X216258092Y-73600000D01*
X216239333Y-73445500D01*
X216237400Y-73429584D01*
X216196003Y-73320431D01*
X216176526Y-73269074D01*
X216079009Y-73127796D01*
X215950514Y-73013960D01*
X215950512Y-73013959D01*
X215950511Y-73013958D01*
X215798510Y-72934181D01*
X215798511Y-72934181D01*
X215631833Y-72893100D01*
X215460167Y-72893100D01*
X215293489Y-72934181D01*
X215141488Y-73013958D01*
X215012990Y-73127796D01*
X214915475Y-73269072D01*
X214915474Y-73269073D01*
X214854599Y-73429584D01*
X214833908Y-73599999D01*
X214833908Y-73600000D01*
X208782848Y-73600000D01*
X208830526Y-73530926D01*
X208891400Y-73370415D01*
X208912092Y-73200000D01*
X208908093Y-73167060D01*
X208891400Y-73029584D01*
X208855218Y-72934181D01*
X208830526Y-72869074D01*
X208733009Y-72727796D01*
X208604514Y-72613960D01*
X208604512Y-72613959D01*
X208604511Y-72613958D01*
X208452510Y-72534181D01*
X208452511Y-72534181D01*
X208285833Y-72493100D01*
X208114167Y-72493100D01*
X207947489Y-72534181D01*
X207795488Y-72613958D01*
X207666990Y-72727796D01*
X207569475Y-72869072D01*
X207569474Y-72869073D01*
X207508599Y-73029584D01*
X207487908Y-73199999D01*
X207487908Y-73200000D01*
X197680180Y-73200000D01*
X197691400Y-73170415D01*
X197712092Y-73000000D01*
X197701045Y-72909015D01*
X197691400Y-72829584D01*
X197652796Y-72727796D01*
X197630526Y-72669074D01*
X197533009Y-72527796D01*
X197404514Y-72413960D01*
X197404512Y-72413959D01*
X197404511Y-72413958D01*
X197252510Y-72334181D01*
X197252511Y-72334181D01*
X197085833Y-72293100D01*
X196914167Y-72293100D01*
X196747489Y-72334181D01*
X196595488Y-72413958D01*
X196466990Y-72527796D01*
X196369475Y-72669072D01*
X196369474Y-72669073D01*
X196308599Y-72829584D01*
X196287908Y-72999999D01*
X196287908Y-73000000D01*
X186326646Y-73000000D01*
X186380083Y-72859098D01*
X186400775Y-72688683D01*
X186380083Y-72518268D01*
X186319209Y-72357757D01*
X186221692Y-72216479D01*
X186093197Y-72102643D01*
X186093195Y-72102642D01*
X186093194Y-72102641D01*
X185941193Y-72022864D01*
X185941194Y-72022864D01*
X185774516Y-71981783D01*
X185602850Y-71981783D01*
X185436172Y-72022864D01*
X185284171Y-72102641D01*
X185155673Y-72216479D01*
X185058158Y-72357755D01*
X185058157Y-72357756D01*
X184997282Y-72518267D01*
X184976591Y-72688682D01*
X184976591Y-72688683D01*
X183544631Y-72688683D01*
X183530000Y-72568185D01*
X183514682Y-72527796D01*
X183501524Y-72493100D01*
X183469126Y-72407674D01*
X183371609Y-72266396D01*
X183243114Y-72152560D01*
X183243112Y-72152559D01*
X183243111Y-72152558D01*
X183091110Y-72072781D01*
X183091111Y-72072781D01*
X182924433Y-72031700D01*
X182752767Y-72031700D01*
X182586089Y-72072781D01*
X182434088Y-72152558D01*
X182305590Y-72266396D01*
X182208075Y-72407672D01*
X182208074Y-72407673D01*
X182147199Y-72568184D01*
X182126508Y-72738599D01*
X182126508Y-72738600D01*
X154470598Y-72738600D01*
X154438220Y-72056018D01*
X154429238Y-71400000D01*
X167187904Y-71400000D01*
X167208595Y-71570415D01*
X167252447Y-71686040D01*
X167269470Y-71730926D01*
X167366987Y-71872204D01*
X167495482Y-71986040D01*
X167495484Y-71986041D01*
X167647485Y-72065818D01*
X167647484Y-72065818D01*
X167814163Y-72106900D01*
X167985829Y-72106900D01*
X168152507Y-72065818D01*
X168304510Y-71986040D01*
X168433005Y-71872204D01*
X168530522Y-71730926D01*
X168591396Y-71570415D01*
X168612088Y-71400000D01*
X168591396Y-71229585D01*
X168530522Y-71069074D01*
X168433005Y-70927796D01*
X168304510Y-70813960D01*
X168304508Y-70813959D01*
X168304507Y-70813958D01*
X168152506Y-70734181D01*
X168152507Y-70734181D01*
X167985829Y-70693100D01*
X167814163Y-70693100D01*
X167647485Y-70734181D01*
X167495484Y-70813958D01*
X167366986Y-70927796D01*
X167269471Y-71069072D01*
X167269470Y-71069073D01*
X167208595Y-71229584D01*
X167187904Y-71399999D01*
X167187904Y-71400000D01*
X154429238Y-71400000D01*
X154422264Y-70890635D01*
X154438092Y-70100000D01*
X190087908Y-70100000D01*
X190108599Y-70270415D01*
X190131549Y-70330927D01*
X190169474Y-70430926D01*
X190266991Y-70572204D01*
X190395486Y-70686040D01*
X190547489Y-70765818D01*
X190627399Y-70785514D01*
X190687779Y-70820668D01*
X190719568Y-70882887D01*
X190718500Y-70921895D01*
X190720504Y-70922139D01*
X190698908Y-71099999D01*
X190698908Y-71100000D01*
X190719599Y-71270415D01*
X190768745Y-71399999D01*
X190780474Y-71430926D01*
X190877991Y-71572204D01*
X191006486Y-71686040D01*
X191006488Y-71686041D01*
X191158489Y-71765818D01*
X191158488Y-71765818D01*
X191325167Y-71806900D01*
X191496833Y-71806900D01*
X191663511Y-71765818D01*
X191815514Y-71686040D01*
X191944009Y-71572204D01*
X192041526Y-71430926D01*
X192102400Y-71270415D01*
X192123092Y-71100000D01*
X192102400Y-70929585D01*
X192041526Y-70769074D01*
X191944009Y-70627796D01*
X191815514Y-70513960D01*
X191815512Y-70513959D01*
X191815511Y-70513958D01*
X191663510Y-70434181D01*
X191583600Y-70414486D01*
X191523220Y-70379330D01*
X191491431Y-70317111D01*
X191492516Y-70278106D01*
X191490496Y-70277861D01*
X191512092Y-70100000D01*
X191512092Y-70099999D01*
X191499950Y-70000000D01*
X212287908Y-70000000D01*
X212308599Y-70170415D01*
X212369474Y-70330926D01*
X212369475Y-70330927D01*
X212438499Y-70430927D01*
X212466991Y-70472204D01*
X212595486Y-70586040D01*
X212595488Y-70586041D01*
X212747489Y-70665818D01*
X212747488Y-70665818D01*
X212914167Y-70706900D01*
X213085833Y-70706900D01*
X213252511Y-70665818D01*
X213404514Y-70586040D01*
X213417772Y-70574293D01*
X213481002Y-70544572D01*
X213550266Y-70553753D01*
X213582224Y-70574291D01*
X213595486Y-70586040D01*
X213595488Y-70586041D01*
X213747489Y-70665818D01*
X213747488Y-70665818D01*
X213914167Y-70706900D01*
X214085833Y-70706900D01*
X214252511Y-70665818D01*
X214404514Y-70586040D01*
X214533009Y-70472204D01*
X214630526Y-70330926D01*
X214634058Y-70321611D01*
X214676236Y-70265909D01*
X214741833Y-70241852D01*
X214810024Y-70257079D01*
X214859157Y-70306755D01*
X214865942Y-70321612D01*
X214869474Y-70330926D01*
X214869475Y-70330927D01*
X214938499Y-70430927D01*
X214966991Y-70472204D01*
X215095486Y-70586040D01*
X215095488Y-70586041D01*
X215247489Y-70665818D01*
X215247488Y-70665818D01*
X215414167Y-70706900D01*
X215585833Y-70706900D01*
X215752511Y-70665818D01*
X215904514Y-70586040D01*
X216033009Y-70472204D01*
X216130526Y-70330926D01*
X216134058Y-70321611D01*
X216176236Y-70265909D01*
X216241833Y-70241852D01*
X216310024Y-70257079D01*
X216359157Y-70306755D01*
X216365942Y-70321612D01*
X216369474Y-70330926D01*
X216369475Y-70330927D01*
X216438499Y-70430927D01*
X216466991Y-70472204D01*
X216595486Y-70586040D01*
X216595488Y-70586041D01*
X216747489Y-70665818D01*
X216747488Y-70665818D01*
X216914167Y-70706900D01*
X217085833Y-70706900D01*
X217252511Y-70665818D01*
X217404514Y-70586040D01*
X217417772Y-70574293D01*
X217481002Y-70544572D01*
X217550266Y-70553753D01*
X217582224Y-70574291D01*
X217595486Y-70586040D01*
X217595488Y-70586041D01*
X217747489Y-70665818D01*
X217747488Y-70665818D01*
X217914167Y-70706900D01*
X218085833Y-70706900D01*
X218252511Y-70665818D01*
X218404514Y-70586040D01*
X218533009Y-70472204D01*
X218630526Y-70330926D01*
X218691400Y-70170415D01*
X218712092Y-70000000D01*
X218691400Y-69829585D01*
X218630526Y-69669074D01*
X218562443Y-69570438D01*
X218540561Y-69504085D01*
X218558026Y-69436434D01*
X218562444Y-69429560D01*
X218587610Y-69393100D01*
X218630526Y-69330926D01*
X218691400Y-69170415D01*
X218712092Y-69000000D01*
X218691400Y-68829585D01*
X218683934Y-68809900D01*
X218655184Y-68734091D01*
X218630526Y-68669074D01*
X218562442Y-68570438D01*
X218540560Y-68504085D01*
X218558025Y-68436433D01*
X218562425Y-68429586D01*
X218630526Y-68330926D01*
X218691400Y-68170415D01*
X218712092Y-68000000D01*
X218703907Y-67932585D01*
X218691400Y-67829584D01*
X218655184Y-67734091D01*
X218630526Y-67669074D01*
X218533009Y-67527796D01*
X218404514Y-67413960D01*
X218404512Y-67413959D01*
X218404511Y-67413958D01*
X218252510Y-67334181D01*
X218252511Y-67334181D01*
X218085833Y-67293100D01*
X217914167Y-67293100D01*
X217747489Y-67334181D01*
X217595493Y-67413955D01*
X217595489Y-67413958D01*
X217595487Y-67413959D01*
X217595486Y-67413960D01*
X217582222Y-67425710D01*
X217518991Y-67455428D01*
X217449728Y-67446243D01*
X217417778Y-67425711D01*
X217404514Y-67413960D01*
X217404509Y-67413957D01*
X217404506Y-67413955D01*
X217252510Y-67334181D01*
X217252511Y-67334181D01*
X217085833Y-67293100D01*
X216914167Y-67293100D01*
X216747489Y-67334181D01*
X216595488Y-67413958D01*
X216466990Y-67527796D01*
X216369475Y-67669072D01*
X216369473Y-67669075D01*
X216365941Y-67678389D01*
X216323762Y-67734091D01*
X216258164Y-67758147D01*
X216189974Y-67742919D01*
X216140842Y-67693242D01*
X216134059Y-67678389D01*
X216130526Y-67669075D01*
X216130526Y-67669074D01*
X216033009Y-67527796D01*
X215904514Y-67413960D01*
X215904512Y-67413959D01*
X215904511Y-67413958D01*
X215752510Y-67334181D01*
X215752511Y-67334181D01*
X215585833Y-67293100D01*
X215414167Y-67293100D01*
X215247489Y-67334181D01*
X215095488Y-67413958D01*
X214966990Y-67527796D01*
X214869475Y-67669072D01*
X214869473Y-67669075D01*
X214865941Y-67678389D01*
X214823762Y-67734091D01*
X214758164Y-67758147D01*
X214689974Y-67742919D01*
X214640842Y-67693242D01*
X214634059Y-67678389D01*
X214630526Y-67669075D01*
X214630526Y-67669074D01*
X214533009Y-67527796D01*
X214404514Y-67413960D01*
X214404512Y-67413959D01*
X214404511Y-67413958D01*
X214252510Y-67334181D01*
X214252511Y-67334181D01*
X214085833Y-67293100D01*
X213914167Y-67293100D01*
X213747489Y-67334181D01*
X213595493Y-67413955D01*
X213595489Y-67413958D01*
X213595487Y-67413959D01*
X213595486Y-67413960D01*
X213582222Y-67425710D01*
X213518991Y-67455428D01*
X213449728Y-67446243D01*
X213417778Y-67425711D01*
X213404514Y-67413960D01*
X213404509Y-67413957D01*
X213404506Y-67413955D01*
X213252510Y-67334181D01*
X213252511Y-67334181D01*
X213085833Y-67293100D01*
X212914167Y-67293100D01*
X212747489Y-67334181D01*
X212595488Y-67413958D01*
X212466990Y-67527796D01*
X212369475Y-67669072D01*
X212369474Y-67669073D01*
X212308599Y-67829584D01*
X212287908Y-67999999D01*
X212287908Y-68000000D01*
X212308599Y-68170415D01*
X212341467Y-68257079D01*
X212369474Y-68330926D01*
X212433212Y-68423267D01*
X212437556Y-68429560D01*
X212459439Y-68495915D01*
X212441974Y-68563566D01*
X212437556Y-68570440D01*
X212369475Y-68669072D01*
X212369474Y-68669073D01*
X212308599Y-68829584D01*
X212287908Y-68999999D01*
X212287908Y-69000000D01*
X212308599Y-69170415D01*
X212369474Y-69330926D01*
X212369475Y-69330927D01*
X212437555Y-69429559D01*
X212459438Y-69495914D01*
X212441972Y-69563565D01*
X212437556Y-69570438D01*
X212369474Y-69669073D01*
X212308599Y-69829584D01*
X212287908Y-69999999D01*
X212287908Y-70000000D01*
X191499950Y-70000000D01*
X191491400Y-69929584D01*
X191453474Y-69829584D01*
X191430526Y-69769074D01*
X191333009Y-69627796D01*
X191204514Y-69513960D01*
X191204512Y-69513959D01*
X191204511Y-69513958D01*
X191052510Y-69434181D01*
X191052511Y-69434181D01*
X190885833Y-69393100D01*
X190714167Y-69393100D01*
X190547489Y-69434181D01*
X190395488Y-69513958D01*
X190266990Y-69627796D01*
X190169475Y-69769072D01*
X190169474Y-69769073D01*
X190108599Y-69929584D01*
X190087908Y-70099999D01*
X190087908Y-70100000D01*
X154438092Y-70100000D01*
X154445592Y-69725376D01*
X154508177Y-68561565D01*
X154548373Y-68103000D01*
X182684908Y-68103000D01*
X182705599Y-68273415D01*
X182764817Y-68429558D01*
X182766474Y-68433926D01*
X182792895Y-68472204D01*
X182860702Y-68570440D01*
X182863991Y-68575204D01*
X182992486Y-68689040D01*
X182992488Y-68689041D01*
X183144489Y-68768818D01*
X183144488Y-68768818D01*
X183311167Y-68809900D01*
X183482833Y-68809900D01*
X183649511Y-68768818D01*
X183801514Y-68689040D01*
X183930009Y-68575204D01*
X184027526Y-68433926D01*
X184088400Y-68273415D01*
X184109092Y-68103000D01*
X184096586Y-67999999D01*
X184088400Y-67932584D01*
X184049337Y-67829585D01*
X184027526Y-67772074D01*
X183930009Y-67630796D01*
X183801514Y-67516960D01*
X183801512Y-67516959D01*
X183801511Y-67516958D01*
X183649510Y-67437181D01*
X183649511Y-67437181D01*
X183482833Y-67396100D01*
X183311167Y-67396100D01*
X183144489Y-67437181D01*
X182992488Y-67516958D01*
X182863990Y-67630796D01*
X182766475Y-67772072D01*
X182766474Y-67772073D01*
X182705599Y-67932584D01*
X182684908Y-68102999D01*
X182684908Y-68103000D01*
X154548373Y-68103000D01*
X154609950Y-67400524D01*
X154750793Y-66243573D01*
X154930547Y-65092025D01*
X155149008Y-63947190D01*
X155405927Y-62810368D01*
X155701014Y-61682850D01*
X156033931Y-60565917D01*
X156257115Y-59900000D01*
X175687908Y-59900000D01*
X175708599Y-60070415D01*
X175731549Y-60130927D01*
X175769474Y-60230926D01*
X175797966Y-60272204D01*
X175838499Y-60330927D01*
X175866991Y-60372204D01*
X175995486Y-60486040D01*
X175995488Y-60486041D01*
X176147489Y-60565818D01*
X176147488Y-60565818D01*
X176314167Y-60606900D01*
X176485833Y-60606900D01*
X176652511Y-60565818D01*
X176804514Y-60486040D01*
X176933009Y-60372204D01*
X177030526Y-60230926D01*
X177091400Y-60070415D01*
X177099950Y-60000000D01*
X183237908Y-60000000D01*
X183258599Y-60170415D01*
X183319474Y-60330925D01*
X183319474Y-60330926D01*
X183416991Y-60472204D01*
X183545486Y-60586040D01*
X183545488Y-60586041D01*
X183697489Y-60665818D01*
X183697488Y-60665818D01*
X183864167Y-60706900D01*
X184035833Y-60706900D01*
X184202511Y-60665818D01*
X184354514Y-60586040D01*
X184483009Y-60472204D01*
X184580526Y-60330926D01*
X184641400Y-60170415D01*
X184662092Y-60000000D01*
X188387908Y-60000000D01*
X188408599Y-60170415D01*
X188469474Y-60330925D01*
X188469474Y-60330926D01*
X188566991Y-60472204D01*
X188695486Y-60586040D01*
X188695488Y-60586041D01*
X188847489Y-60665818D01*
X188847488Y-60665818D01*
X189014167Y-60706900D01*
X189185833Y-60706900D01*
X189352511Y-60665818D01*
X189504514Y-60586040D01*
X189633009Y-60472204D01*
X189730526Y-60330926D01*
X189791400Y-60170415D01*
X189812092Y-60000000D01*
X189791400Y-59829585D01*
X189780179Y-59800000D01*
X195887908Y-59800000D01*
X195908599Y-59970415D01*
X195969474Y-60130926D01*
X195969475Y-60130927D01*
X196038499Y-60230927D01*
X196066991Y-60272204D01*
X196195486Y-60386040D01*
X196195488Y-60386041D01*
X196347489Y-60465818D01*
X196347488Y-60465818D01*
X196514167Y-60506900D01*
X196685833Y-60506900D01*
X196852511Y-60465818D01*
X197004514Y-60386040D01*
X197133009Y-60272204D01*
X197230526Y-60130926D01*
X197291400Y-59970415D01*
X197312092Y-59800000D01*
X203387908Y-59800000D01*
X203408599Y-59970415D01*
X203469474Y-60130926D01*
X203469475Y-60130927D01*
X203538499Y-60230927D01*
X203566991Y-60272204D01*
X203695486Y-60386040D01*
X203695488Y-60386041D01*
X203847489Y-60465818D01*
X203847488Y-60465818D01*
X204014167Y-60506900D01*
X204185833Y-60506900D01*
X204352511Y-60465818D01*
X204504514Y-60386040D01*
X204633009Y-60272204D01*
X204730526Y-60130926D01*
X204791400Y-59970415D01*
X204812092Y-59800000D01*
X204791400Y-59629585D01*
X204730526Y-59469074D01*
X204633009Y-59327796D01*
X204504514Y-59213960D01*
X204504512Y-59213959D01*
X204504511Y-59213958D01*
X204352510Y-59134181D01*
X204352511Y-59134181D01*
X204185833Y-59093100D01*
X204014167Y-59093100D01*
X203847489Y-59134181D01*
X203695488Y-59213958D01*
X203566990Y-59327796D01*
X203469475Y-59469072D01*
X203469474Y-59469073D01*
X203408599Y-59629584D01*
X203387908Y-59799999D01*
X203387908Y-59800000D01*
X197312092Y-59800000D01*
X197291400Y-59629585D01*
X197230526Y-59469074D01*
X197133009Y-59327796D01*
X197004514Y-59213960D01*
X197004512Y-59213959D01*
X197004511Y-59213958D01*
X196852510Y-59134181D01*
X196852511Y-59134181D01*
X196685833Y-59093100D01*
X196514167Y-59093100D01*
X196347489Y-59134181D01*
X196195488Y-59213958D01*
X196066990Y-59327796D01*
X195969475Y-59469072D01*
X195969474Y-59469073D01*
X195908599Y-59629584D01*
X195887908Y-59799999D01*
X195887908Y-59800000D01*
X189780179Y-59800000D01*
X189780179Y-59799999D01*
X189753474Y-59729584D01*
X189730526Y-59669074D01*
X189633009Y-59527796D01*
X189504514Y-59413960D01*
X189504512Y-59413959D01*
X189504511Y-59413958D01*
X189352510Y-59334181D01*
X189352511Y-59334181D01*
X189185833Y-59293100D01*
X189014167Y-59293100D01*
X188847489Y-59334181D01*
X188695488Y-59413958D01*
X188566990Y-59527796D01*
X188469475Y-59669072D01*
X188469474Y-59669073D01*
X188408599Y-59829584D01*
X188387908Y-59999999D01*
X188387908Y-60000000D01*
X184662092Y-60000000D01*
X184641400Y-59829585D01*
X184630179Y-59799999D01*
X184603474Y-59729584D01*
X184580526Y-59669074D01*
X184483009Y-59527796D01*
X184354514Y-59413960D01*
X184354512Y-59413959D01*
X184354511Y-59413958D01*
X184202510Y-59334181D01*
X184202511Y-59334181D01*
X184035833Y-59293100D01*
X183864167Y-59293100D01*
X183697489Y-59334181D01*
X183545488Y-59413958D01*
X183416990Y-59527796D01*
X183319475Y-59669072D01*
X183319474Y-59669073D01*
X183258599Y-59829584D01*
X183237908Y-59999999D01*
X183237908Y-60000000D01*
X177099950Y-60000000D01*
X177112092Y-59900000D01*
X177091400Y-59729585D01*
X177030526Y-59569074D01*
X176933009Y-59427796D01*
X176804514Y-59313960D01*
X176804512Y-59313959D01*
X176804511Y-59313958D01*
X176652510Y-59234181D01*
X176652511Y-59234181D01*
X176485833Y-59193100D01*
X176314167Y-59193100D01*
X176147489Y-59234181D01*
X175995488Y-59313958D01*
X175866990Y-59427796D01*
X175769475Y-59569072D01*
X175769474Y-59569073D01*
X175708599Y-59729584D01*
X175687908Y-59899999D01*
X175687908Y-59900000D01*
X156257115Y-59900000D01*
X156404302Y-59460838D01*
X156811705Y-58368870D01*
X157255678Y-57291251D01*
X157735716Y-56229208D01*
X158251273Y-55183945D01*
X158801765Y-54156652D01*
X159386565Y-53148494D01*
X160005009Y-52160618D01*
X160113263Y-52000000D01*
X160639399Y-51219363D01*
X160693187Y-51174776D01*
X160762547Y-51166346D01*
X160825453Y-51196753D01*
X160861934Y-51256342D01*
X160864470Y-51309439D01*
X160808244Y-51640364D01*
X160808242Y-51640379D01*
X160788047Y-52000000D01*
X160808242Y-52359620D01*
X160808244Y-52359632D01*
X160868576Y-52714723D01*
X160868578Y-52714732D01*
X160968290Y-53060838D01*
X161106126Y-53393607D01*
X161106128Y-53393611D01*
X161106130Y-53393614D01*
X161280362Y-53708862D01*
X161488794Y-54002620D01*
X161728806Y-54271194D01*
X161997380Y-54511206D01*
X162291138Y-54719638D01*
X162606386Y-54893870D01*
X162606388Y-54893871D01*
X162606392Y-54893873D01*
X162733915Y-54946694D01*
X162939159Y-55031709D01*
X163285273Y-55131423D01*
X163640375Y-55191757D01*
X164000000Y-55211953D01*
X164359625Y-55191757D01*
X164714727Y-55131423D01*
X165060841Y-55031709D01*
X165393614Y-54893870D01*
X165708862Y-54719638D01*
X166002620Y-54511206D01*
X166015160Y-54500000D01*
X168000000Y-54500000D01*
X168000000Y-58500000D01*
X210000000Y-58500000D01*
X210000000Y-54500000D01*
X168000000Y-54500000D01*
X166015160Y-54500000D01*
X166271194Y-54271194D01*
X166511206Y-54002620D01*
X166719638Y-53708862D01*
X166893870Y-53393614D01*
X167031709Y-53060841D01*
X167131423Y-52714727D01*
X167191757Y-52359625D01*
X167211953Y-52000000D01*
X167191757Y-51640375D01*
X167131423Y-51285273D01*
X167031709Y-50939159D01*
X166946694Y-50733915D01*
X166893873Y-50606392D01*
X166893871Y-50606388D01*
X166893870Y-50606386D01*
X166719638Y-50291138D01*
X166511206Y-49997380D01*
X166271194Y-49728806D01*
X166002620Y-49488794D01*
X165708862Y-49280362D01*
X165393611Y-49106128D01*
X165393607Y-49106126D01*
X165120952Y-48993190D01*
X165060841Y-48968291D01*
X165060838Y-48968290D01*
X164714732Y-48868578D01*
X164714723Y-48868576D01*
X164359632Y-48808244D01*
X164359620Y-48808242D01*
X164000000Y-48788047D01*
X163640379Y-48808242D01*
X163640367Y-48808244D01*
X163285276Y-48868576D01*
X163285267Y-48868578D01*
X162939161Y-48968290D01*
X162606392Y-49106126D01*
X162606388Y-49106128D01*
X162507162Y-49160969D01*
X162438966Y-49176169D01*
X162373378Y-49152086D01*
X162331222Y-49096366D01*
X162325882Y-49026701D01*
X162351877Y-48973112D01*
X162800621Y-48434001D01*
X163576011Y-47563862D01*
X164380286Y-46720348D01*
X164412584Y-46688683D01*
X171940308Y-46688683D01*
X171960999Y-46859098D01*
X172013687Y-46998022D01*
X172021874Y-47019609D01*
X172119391Y-47160887D01*
X172247886Y-47274723D01*
X172247888Y-47274724D01*
X172399889Y-47354501D01*
X172399888Y-47354501D01*
X172566567Y-47395583D01*
X172738233Y-47395583D01*
X172904911Y-47354501D01*
X172932540Y-47340000D01*
X195787908Y-47340000D01*
X195808599Y-47510415D01*
X195869474Y-47670926D01*
X195966991Y-47812204D01*
X196095486Y-47926040D01*
X196095488Y-47926041D01*
X196247489Y-48005818D01*
X196247488Y-48005818D01*
X196414167Y-48046900D01*
X196585833Y-48046900D01*
X196752511Y-48005818D01*
X196904514Y-47926040D01*
X197033009Y-47812204D01*
X197130526Y-47670926D01*
X197191400Y-47510415D01*
X197212092Y-47340000D01*
X197191400Y-47169585D01*
X197188101Y-47160887D01*
X197168313Y-47108710D01*
X197130526Y-47009074D01*
X197033009Y-46867796D01*
X196904514Y-46753960D01*
X196904512Y-46753959D01*
X196904511Y-46753958D01*
X196752510Y-46674181D01*
X196752511Y-46674181D01*
X196585833Y-46633100D01*
X196414167Y-46633100D01*
X196247489Y-46674181D01*
X196095488Y-46753958D01*
X195966990Y-46867796D01*
X195869475Y-47009072D01*
X195869474Y-47009073D01*
X195808599Y-47169584D01*
X195787908Y-47339999D01*
X195787908Y-47340000D01*
X172932540Y-47340000D01*
X173056914Y-47274723D01*
X173185409Y-47160887D01*
X173282926Y-47019609D01*
X173343800Y-46859098D01*
X173364492Y-46688683D01*
X173343800Y-46518268D01*
X173282926Y-46357757D01*
X173185409Y-46216479D01*
X173056914Y-46102643D01*
X173056912Y-46102642D01*
X173056911Y-46102641D01*
X172904910Y-46022864D01*
X172904911Y-46022864D01*
X172738233Y-45981783D01*
X172566567Y-45981783D01*
X172399889Y-46022864D01*
X172247888Y-46102641D01*
X172119390Y-46216479D01*
X172021875Y-46357755D01*
X172021874Y-46357756D01*
X171960999Y-46518267D01*
X171940308Y-46688682D01*
X171940308Y-46688683D01*
X164412584Y-46688683D01*
X165212532Y-45904419D01*
X165435605Y-45700000D01*
X193787908Y-45700000D01*
X193808599Y-45870415D01*
X193850836Y-45981783D01*
X193869474Y-46030926D01*
X193966991Y-46172204D01*
X194095486Y-46286040D01*
X194095488Y-46286041D01*
X194247489Y-46365818D01*
X194247488Y-46365818D01*
X194414167Y-46406900D01*
X194585833Y-46406900D01*
X194752511Y-46365818D01*
X194904514Y-46286040D01*
X195033009Y-46172204D01*
X195130526Y-46030926D01*
X195191400Y-45870415D01*
X195212092Y-45700000D01*
X195191400Y-45529585D01*
X195130526Y-45369074D01*
X195033009Y-45227796D01*
X194904514Y-45113960D01*
X194904512Y-45113959D01*
X194904511Y-45113958D01*
X194752510Y-45034181D01*
X194752511Y-45034181D01*
X194585833Y-44993100D01*
X194414167Y-44993100D01*
X194247489Y-45034181D01*
X194095488Y-45113958D01*
X193966990Y-45227796D01*
X193869475Y-45369072D01*
X193869474Y-45369073D01*
X193808599Y-45529584D01*
X193787908Y-45699999D01*
X193787908Y-45700000D01*
X165435605Y-45700000D01*
X166071803Y-45117002D01*
X166957123Y-44358991D01*
X167156011Y-44200000D01*
X172212908Y-44200000D01*
X172233599Y-44370415D01*
X172294474Y-44530926D01*
X172391991Y-44672204D01*
X172520486Y-44786040D01*
X172520488Y-44786041D01*
X172672489Y-44865818D01*
X172672488Y-44865818D01*
X172839167Y-44906900D01*
X173010833Y-44906900D01*
X173177511Y-44865818D01*
X173329514Y-44786040D01*
X173458009Y-44672204D01*
X173507839Y-44600012D01*
X176912908Y-44600012D01*
X176933599Y-44770427D01*
X176994473Y-44930937D01*
X176994474Y-44930938D01*
X177091991Y-45072216D01*
X177220486Y-45186052D01*
X177220488Y-45186053D01*
X177372489Y-45265830D01*
X177372488Y-45265830D01*
X177539167Y-45306912D01*
X177710833Y-45306912D01*
X177877511Y-45265830D01*
X178029514Y-45186052D01*
X178158009Y-45072216D01*
X178255526Y-44930938D01*
X178316400Y-44770427D01*
X178337092Y-44600012D01*
X178328704Y-44530926D01*
X178316400Y-44429596D01*
X178285989Y-44349411D01*
X178255526Y-44269086D01*
X178158009Y-44127808D01*
X178029514Y-44013972D01*
X178029512Y-44013971D01*
X178029511Y-44013970D01*
X177877510Y-43934193D01*
X177877511Y-43934193D01*
X177710833Y-43893112D01*
X177539167Y-43893112D01*
X177372489Y-43934193D01*
X177220488Y-44013970D01*
X177091990Y-44127808D01*
X176994475Y-44269084D01*
X176994474Y-44269085D01*
X176933599Y-44429596D01*
X176912908Y-44600011D01*
X176912908Y-44600012D01*
X173507839Y-44600012D01*
X173555526Y-44530926D01*
X173616400Y-44370415D01*
X173637092Y-44200000D01*
X173620102Y-44060069D01*
X173616400Y-44029584D01*
X173580222Y-43934193D01*
X173555526Y-43869074D01*
X173458009Y-43727796D01*
X173451696Y-43722203D01*
X173410509Y-43685714D01*
X173373382Y-43626525D01*
X173374150Y-43556659D01*
X173412568Y-43498300D01*
X173423687Y-43490806D01*
X173423340Y-43490302D01*
X173429509Y-43486043D01*
X173429510Y-43486042D01*
X173429514Y-43486040D01*
X173558009Y-43372204D01*
X173642360Y-43250000D01*
X190787908Y-43250000D01*
X190808599Y-43420415D01*
X190849219Y-43527519D01*
X190869474Y-43580926D01*
X190966991Y-43722204D01*
X191095486Y-43836040D01*
X191204227Y-43893112D01*
X191247489Y-43915818D01*
X191247488Y-43915818D01*
X191414167Y-43956900D01*
X191585833Y-43956900D01*
X191752511Y-43915818D01*
X191904514Y-43836040D01*
X192025176Y-43729143D01*
X192984708Y-43729143D01*
X193005399Y-43899558D01*
X193066274Y-44060069D01*
X193066275Y-44060070D01*
X193162860Y-44199999D01*
X193163791Y-44201347D01*
X193292286Y-44315183D01*
X193397521Y-44370415D01*
X193444289Y-44394961D01*
X193444288Y-44394961D01*
X193610967Y-44436043D01*
X193782633Y-44436043D01*
X193949311Y-44394961D01*
X194101314Y-44315183D01*
X194229809Y-44201347D01*
X194327326Y-44060069D01*
X194388200Y-43899558D01*
X194408892Y-43729143D01*
X194408729Y-43727796D01*
X194388200Y-43558727D01*
X194355867Y-43473474D01*
X194327326Y-43398217D01*
X194229809Y-43256939D01*
X194101314Y-43143103D01*
X194101312Y-43143102D01*
X194101311Y-43143101D01*
X193949310Y-43063324D01*
X193949311Y-43063324D01*
X193782633Y-43022243D01*
X193610967Y-43022243D01*
X193444289Y-43063324D01*
X193292288Y-43143101D01*
X193163790Y-43256939D01*
X193066275Y-43398215D01*
X193066274Y-43398216D01*
X193005399Y-43558727D01*
X192984708Y-43729142D01*
X192984708Y-43729143D01*
X192025176Y-43729143D01*
X192033009Y-43722204D01*
X192130526Y-43580926D01*
X192191400Y-43420415D01*
X192212092Y-43250000D01*
X192199113Y-43143103D01*
X192191400Y-43079584D01*
X192168313Y-43018709D01*
X192130526Y-42919074D01*
X192033009Y-42777796D01*
X191904514Y-42663960D01*
X191904512Y-42663959D01*
X191904511Y-42663958D01*
X191752510Y-42584181D01*
X191752511Y-42584181D01*
X191585833Y-42543100D01*
X191414167Y-42543100D01*
X191247489Y-42584181D01*
X191095488Y-42663958D01*
X190966990Y-42777796D01*
X190869475Y-42919072D01*
X190869474Y-42919073D01*
X190808599Y-43079584D01*
X190787908Y-43249999D01*
X190787908Y-43250000D01*
X173642360Y-43250000D01*
X173655526Y-43230926D01*
X173716400Y-43070415D01*
X173737092Y-42900000D01*
X173716400Y-42729585D01*
X173655526Y-42569074D01*
X173558009Y-42427796D01*
X173429514Y-42313960D01*
X173429512Y-42313959D01*
X173429511Y-42313958D01*
X173277510Y-42234181D01*
X173277511Y-42234181D01*
X173110833Y-42193100D01*
X172939167Y-42193100D01*
X172772489Y-42234181D01*
X172620488Y-42313958D01*
X172491990Y-42427796D01*
X172394475Y-42569072D01*
X172394474Y-42569073D01*
X172333599Y-42729584D01*
X172312908Y-42899999D01*
X172312908Y-42900000D01*
X172333599Y-43070415D01*
X172394473Y-43230925D01*
X172394474Y-43230926D01*
X172491991Y-43372203D01*
X172491992Y-43372205D01*
X172539490Y-43414285D01*
X172576617Y-43473474D01*
X172575849Y-43543340D01*
X172537431Y-43601699D01*
X172526315Y-43609199D01*
X172526660Y-43609698D01*
X172520490Y-43613956D01*
X172391990Y-43727796D01*
X172294475Y-43869072D01*
X172294474Y-43869073D01*
X172233599Y-44029584D01*
X172212908Y-44199999D01*
X172212908Y-44200000D01*
X167156011Y-44200000D01*
X167867487Y-43631246D01*
X168801859Y-42934596D01*
X169759178Y-42269832D01*
X170738358Y-41637708D01*
X171738284Y-41038942D01*
X172757822Y-40474217D01*
X173795813Y-39944171D01*
X174851078Y-39449409D01*
X175922417Y-38990492D01*
X177008614Y-38567941D01*
X178108435Y-38182237D01*
X179220629Y-37833817D01*
X180343934Y-37523078D01*
X181477073Y-37250372D01*
X182618760Y-37016010D01*
X183767696Y-36820258D01*
X184922576Y-36663337D01*
X186082089Y-36545427D01*
X187244917Y-36466661D01*
X188409739Y-36427129D01*
X189575232Y-36426876D01*
X190740071Y-36465902D01*
G37*
G04 #@! TD.AperFunction*
D17*
X210502311Y-98461865D02*
G75*
G03*
X167509630Y-98471210I-21502311J27461865D01*
G01*
X210502311Y-98461866D02*
X167509629Y-98471211D01*
M02*
