G04 #@! TF.GenerationSoftware,KiCad,Pcbnew,7.0.7-7.0.7~ubuntu22.04.1*
G04 #@! TF.CreationDate,2023-10-29T13:36:20+01:00*
G04 #@! TF.ProjectId,vfd1,76666431-2e6b-4696-9361-645f70636258,rev?*
G04 #@! TF.SameCoordinates,Original*
G04 #@! TF.FileFunction,Soldermask,Top*
G04 #@! TF.FilePolarity,Negative*
%FSLAX46Y46*%
G04 Gerber Fmt 4.6, Leading zero omitted, Abs format (unit mm)*
G04 Created by KiCad (PCBNEW 7.0.7-7.0.7~ubuntu22.04.1) date 2023-10-29 13:36:20*
%MOMM*%
%LPD*%
G01*
G04 APERTURE LIST*
G04 Aperture macros list*
%AMRoundRect*
0 Rectangle with rounded corners*
0 $1 Rounding radius*
0 $2 $3 $4 $5 $6 $7 $8 $9 X,Y pos of 4 corners*
0 Add a 4 corners polygon primitive as box body*
4,1,4,$2,$3,$4,$5,$6,$7,$8,$9,$2,$3,0*
0 Add four circle primitives for the rounded corners*
1,1,$1+$1,$2,$3*
1,1,$1+$1,$4,$5*
1,1,$1+$1,$6,$7*
1,1,$1+$1,$8,$9*
0 Add four rect primitives between the rounded corners*
20,1,$1+$1,$2,$3,$4,$5,0*
20,1,$1+$1,$4,$5,$6,$7,0*
20,1,$1+$1,$6,$7,$8,$9,0*
20,1,$1+$1,$8,$9,$2,$3,0*%
G04 Aperture macros list end*
%ADD10RoundRect,0.250000X0.250000X0.475000X-0.250000X0.475000X-0.250000X-0.475000X0.250000X-0.475000X0*%
%ADD11RoundRect,0.250000X-0.450000X0.262500X-0.450000X-0.262500X0.450000X-0.262500X0.450000X0.262500X0*%
%ADD12RoundRect,0.250000X0.450000X-0.262500X0.450000X0.262500X-0.450000X0.262500X-0.450000X-0.262500X0*%
%ADD13RoundRect,0.250000X-1.250000X-0.550000X1.250000X-0.550000X1.250000X0.550000X-1.250000X0.550000X0*%
%ADD14R,2.760000X0.650000*%
%ADD15C,2.100000*%
%ADD16C,1.750000*%
%ADD17RoundRect,0.150000X-0.150000X0.587500X-0.150000X-0.587500X0.150000X-0.587500X0.150000X0.587500X0*%
%ADD18RoundRect,0.150000X0.150000X-0.587500X0.150000X0.587500X-0.150000X0.587500X-0.150000X-0.587500X0*%
%ADD19R,1.800000X1.000000*%
%ADD20RoundRect,0.250000X-0.325000X-0.650000X0.325000X-0.650000X0.325000X0.650000X-0.325000X0.650000X0*%
%ADD21C,5.600000*%
%ADD22RoundRect,0.250000X-0.250000X-0.475000X0.250000X-0.475000X0.250000X0.475000X-0.250000X0.475000X0*%
%ADD23RoundRect,0.150000X-0.512500X-0.150000X0.512500X-0.150000X0.512500X0.150000X-0.512500X0.150000X0*%
%ADD24RoundRect,0.250000X-0.675000X0.250000X-0.675000X-0.250000X0.675000X-0.250000X0.675000X0.250000X0*%
%ADD25R,1.500000X2.000000*%
%ADD26R,3.800000X2.000000*%
%ADD27RoundRect,0.150000X-0.725000X-0.150000X0.725000X-0.150000X0.725000X0.150000X-0.725000X0.150000X0*%
%ADD28RoundRect,0.250000X-1.075000X0.362500X-1.075000X-0.362500X1.075000X-0.362500X1.075000X0.362500X0*%
%ADD29R,0.400000X1.650000*%
%ADD30R,1.825000X0.700000*%
%ADD31R,2.000000X1.500000*%
%ADD32R,1.350000X2.000000*%
%ADD33O,1.350000X1.700000*%
%ADD34O,1.100000X1.500000*%
%ADD35R,1.430000X2.500000*%
%ADD36RoundRect,0.250000X0.262500X0.450000X-0.262500X0.450000X-0.262500X-0.450000X0.262500X-0.450000X0*%
%ADD37RoundRect,0.250000X-0.475000X0.250000X-0.475000X-0.250000X0.475000X-0.250000X0.475000X0.250000X0*%
%ADD38RoundRect,0.250000X0.650000X-0.325000X0.650000X0.325000X-0.650000X0.325000X-0.650000X-0.325000X0*%
%ADD39RoundRect,0.250000X-0.262500X-0.450000X0.262500X-0.450000X0.262500X0.450000X-0.262500X0.450000X0*%
%ADD40RoundRect,0.250000X0.325000X0.650000X-0.325000X0.650000X-0.325000X-0.650000X0.325000X-0.650000X0*%
%ADD41RoundRect,0.125000X-0.625000X-0.125000X0.625000X-0.125000X0.625000X0.125000X-0.625000X0.125000X0*%
%ADD42RoundRect,0.125000X-0.125000X-0.625000X0.125000X-0.625000X0.125000X0.625000X-0.125000X0.625000X0*%
%ADD43R,2.790000X1.190000*%
%ADD44C,1.800000*%
G04 #@! TA.AperFunction,Profile*
%ADD45C,0.150000*%
G04 #@! TD*
G04 APERTURE END LIST*
D10*
X177625000Y-41000000D03*
X175725000Y-41000000D03*
D11*
X204000000Y-89887500D03*
X204000000Y-91712500D03*
D12*
X175250000Y-54412500D03*
X175250000Y-52587500D03*
D13*
X182825000Y-41000000D03*
X187225000Y-41000000D03*
D12*
X190225000Y-43300000D03*
X190225000Y-41475000D03*
D14*
X206312200Y-73228200D03*
X202272200Y-73228200D03*
X206312200Y-71958200D03*
X202272200Y-71958200D03*
X206312200Y-70688200D03*
X202272200Y-70688200D03*
X206312200Y-69418200D03*
X202272200Y-69418200D03*
X206312200Y-68148200D03*
X202272200Y-68148200D03*
D15*
X197250000Y-93110000D03*
X190240000Y-93110000D03*
D16*
X196000000Y-95600000D03*
X191500000Y-95600000D03*
D17*
X193700000Y-81250000D03*
X191800000Y-81250000D03*
X192750000Y-83125000D03*
X204650000Y-81250000D03*
X202750000Y-81250000D03*
X203700000Y-83125000D03*
D18*
X174300000Y-60937500D03*
X176200000Y-60937500D03*
X175250000Y-59062500D03*
D10*
X181800000Y-73500000D03*
X179900000Y-73500000D03*
D19*
X181898000Y-71696000D03*
X181898000Y-69196000D03*
D11*
X201500000Y-87587500D03*
X201500000Y-89412500D03*
D20*
X175150000Y-48600000D03*
X178100000Y-48600000D03*
D21*
X164000000Y-52000000D03*
D17*
X189200000Y-81250000D03*
X187300000Y-81250000D03*
X188250000Y-83125000D03*
D22*
X182438000Y-67144000D03*
X184338000Y-67144000D03*
D21*
X214000000Y-90000000D03*
D23*
X192587500Y-43250000D03*
X192587500Y-44200000D03*
X192587500Y-45150000D03*
X194862500Y-45150000D03*
X194862500Y-43250000D03*
D24*
X169300000Y-73910000D03*
X169300000Y-71370000D03*
X169300000Y-66290000D03*
X158900000Y-66290000D03*
X158900000Y-73910000D03*
D25*
X213246000Y-72308000D03*
X215546000Y-72308000D03*
D26*
X215546000Y-66008000D03*
D25*
X217846000Y-72308000D03*
D12*
X187750000Y-54412500D03*
X187750000Y-52587500D03*
D27*
X174237500Y-42845000D03*
X174237500Y-44115000D03*
X174237500Y-45385000D03*
X174237500Y-46655000D03*
X179387500Y-46655000D03*
X179387500Y-45385000D03*
X179387500Y-44115000D03*
X179387500Y-42845000D03*
D28*
X207750000Y-49687500D03*
X207750000Y-54312500D03*
D11*
X180250000Y-87587500D03*
X180250000Y-89412500D03*
D12*
X190225000Y-46687500D03*
X190225000Y-44862500D03*
D11*
X185250000Y-87587500D03*
X185250000Y-89412500D03*
D15*
X176050000Y-93110000D03*
X169040000Y-93110000D03*
D16*
X174800000Y-95600000D03*
X170300000Y-95600000D03*
D17*
X197700000Y-81250000D03*
X195800000Y-81250000D03*
X196750000Y-83125000D03*
X178700000Y-81312500D03*
X176800000Y-81312500D03*
X177750000Y-83187500D03*
D29*
X203965000Y-94295000D03*
X204615000Y-94295000D03*
X205265000Y-94295000D03*
X205915000Y-94295000D03*
X206565000Y-94295000D03*
D30*
X202315000Y-95495000D03*
D31*
X202415000Y-94195000D03*
D32*
X202535000Y-96245000D03*
D33*
X202535000Y-97175000D03*
D34*
X202845000Y-94175000D03*
D35*
X204305000Y-97445000D03*
X206225000Y-97445000D03*
D34*
X207685000Y-94175000D03*
D33*
X207995000Y-97175000D03*
D32*
X208015000Y-96245000D03*
D31*
X208165000Y-94175000D03*
D30*
X208265000Y-95495000D03*
D36*
X199593200Y-72974200D03*
X197768200Y-72974200D03*
D37*
X193548000Y-76100000D03*
X193548000Y-78000000D03*
D17*
X182200000Y-81312500D03*
X180300000Y-81312500D03*
X181250000Y-83187500D03*
D11*
X199000000Y-87587500D03*
X199000000Y-89412500D03*
D12*
X195250000Y-54412500D03*
X195250000Y-52587500D03*
D38*
X173000000Y-74000000D03*
X173000000Y-71050000D03*
D39*
X184396500Y-65112000D03*
X186221500Y-65112000D03*
D13*
X182825000Y-46900000D03*
X187225000Y-46900000D03*
D11*
X175250000Y-87587500D03*
X175250000Y-89412500D03*
X192750000Y-87587500D03*
X192750000Y-89412500D03*
D22*
X177900000Y-71462000D03*
X179800000Y-71462000D03*
D40*
X165500000Y-62000000D03*
X162550000Y-62000000D03*
D12*
X196800000Y-45125000D03*
X196800000Y-43300000D03*
D10*
X194600000Y-41500000D03*
X192700000Y-41500000D03*
D28*
X170250000Y-49687500D03*
X170250000Y-54312500D03*
D18*
X201800000Y-60687500D03*
X203700000Y-60687500D03*
X202750000Y-58812500D03*
D11*
X205900000Y-89887500D03*
X205900000Y-91712500D03*
X187750000Y-87587500D03*
X187750000Y-89412500D03*
D39*
X197537700Y-70688200D03*
X199362700Y-70688200D03*
D17*
X185700000Y-81250000D03*
X183800000Y-81250000D03*
X184750000Y-83125000D03*
D41*
X184436000Y-69176000D03*
X184436000Y-69976000D03*
X184436000Y-70776000D03*
X184436000Y-71576000D03*
X184436000Y-72376000D03*
X184436000Y-73176000D03*
X184436000Y-73976000D03*
X184436000Y-74776000D03*
D42*
X185811000Y-76151000D03*
X186611000Y-76151000D03*
X187411000Y-76151000D03*
X188211000Y-76151000D03*
X189011000Y-76151000D03*
X189811000Y-76151000D03*
X190611000Y-76151000D03*
X191411000Y-76151000D03*
D41*
X192786000Y-74776000D03*
X192786000Y-73976000D03*
X192786000Y-73176000D03*
X192786000Y-72376000D03*
X192786000Y-71576000D03*
X192786000Y-70776000D03*
X192786000Y-69976000D03*
X192786000Y-69176000D03*
D42*
X191411000Y-67801000D03*
X190611000Y-67801000D03*
X189811000Y-67801000D03*
X189011000Y-67801000D03*
X188211000Y-67801000D03*
X187411000Y-67801000D03*
X186611000Y-67801000D03*
X185811000Y-67801000D03*
D22*
X177900000Y-69430000D03*
X179800000Y-69430000D03*
D17*
X201200000Y-81250000D03*
X199300000Y-81250000D03*
X200250000Y-83125000D03*
D11*
X196500000Y-87587500D03*
X196500000Y-89412500D03*
D12*
X182750000Y-54412500D03*
X182750000Y-52587500D03*
D15*
X186650000Y-93110000D03*
X179640000Y-93110000D03*
D16*
X185400000Y-95600000D03*
X180900000Y-95600000D03*
D21*
X214000000Y-52000000D03*
D17*
X175200000Y-81312500D03*
X173300000Y-81312500D03*
X174250000Y-83187500D03*
D18*
X194300000Y-60687500D03*
X196200000Y-60687500D03*
X195250000Y-58812500D03*
X181800000Y-60937500D03*
X183700000Y-60937500D03*
X182750000Y-59062500D03*
D12*
X196800000Y-41712500D03*
X196800000Y-39887500D03*
D18*
X186800000Y-60937500D03*
X188700000Y-60937500D03*
X187750000Y-59062500D03*
D11*
X177750000Y-87587500D03*
X177750000Y-89412500D03*
D43*
X199485000Y-41560000D03*
X204315000Y-44100000D03*
X199485000Y-46640000D03*
D40*
X217832000Y-77540000D03*
X214882000Y-77540000D03*
X215800000Y-75000000D03*
X212850000Y-75000000D03*
D12*
X202750000Y-54412500D03*
X202750000Y-52587500D03*
D20*
X192750000Y-47100000D03*
X195700000Y-47100000D03*
D21*
X164000000Y-90000000D03*
D44*
X207750000Y-85500000D03*
X205250000Y-85500000D03*
X202750000Y-85500000D03*
X200250000Y-85500000D03*
X197750000Y-85500000D03*
X195250000Y-85500000D03*
X192750000Y-85500000D03*
X190250000Y-85500000D03*
X187750000Y-85500000D03*
X185250000Y-85500000D03*
X182750000Y-85500000D03*
X180250000Y-85500000D03*
X177750000Y-85500000D03*
X175250000Y-85500000D03*
X172750000Y-85500000D03*
X170250000Y-85500000D03*
X170250000Y-56500000D03*
X175250000Y-56500000D03*
X182750000Y-56500000D03*
X187750000Y-56500000D03*
X195250000Y-56500000D03*
X202750000Y-56500000D03*
X207750000Y-56500000D03*
D45*
X210502311Y-98461865D02*
G75*
G03*
X167509630Y-98471210I-21502311J27461865D01*
G01*
X210502311Y-98461866D02*
X167509629Y-98471211D01*
M02*
