G04 #@! TF.GenerationSoftware,KiCad,Pcbnew,7.0.7-7.0.7~ubuntu22.04.1*
G04 #@! TF.CreationDate,2023-10-29T13:36:20+01:00*
G04 #@! TF.ProjectId,vfd1,76666431-2e6b-4696-9361-645f70636258,rev?*
G04 #@! TF.SameCoordinates,Original*
G04 #@! TF.FileFunction,Copper,L4,Bot*
G04 #@! TF.FilePolarity,Positive*
%FSLAX46Y46*%
G04 Gerber Fmt 4.6, Leading zero omitted, Abs format (unit mm)*
G04 Created by KiCad (PCBNEW 7.0.7-7.0.7~ubuntu22.04.1) date 2023-10-29 13:36:20*
%MOMM*%
%LPD*%
G01*
G04 APERTURE LIST*
G04 #@! TA.AperFunction,ComponentPad*
%ADD10C,2.100000*%
G04 #@! TD*
G04 #@! TA.AperFunction,ComponentPad*
%ADD11C,1.750000*%
G04 #@! TD*
G04 #@! TA.AperFunction,ComponentPad*
%ADD12C,5.600000*%
G04 #@! TD*
G04 #@! TA.AperFunction,ComponentPad*
%ADD13O,1.350000X1.700000*%
G04 #@! TD*
G04 #@! TA.AperFunction,ComponentPad*
%ADD14O,1.100000X1.500000*%
G04 #@! TD*
G04 #@! TA.AperFunction,ComponentPad*
%ADD15C,1.800000*%
G04 #@! TD*
G04 #@! TA.AperFunction,ViaPad*
%ADD16C,0.600000*%
G04 #@! TD*
G04 #@! TA.AperFunction,Conductor*
%ADD17C,0.304800*%
G04 #@! TD*
G04 #@! TA.AperFunction,Conductor*
%ADD18C,0.406400*%
G04 #@! TD*
G04 #@! TA.AperFunction,Profile*
%ADD19C,0.150000*%
G04 #@! TD*
G04 APERTURE END LIST*
D10*
X197250000Y-93110000D03*
X190240000Y-93110000D03*
D11*
X196000000Y-95600000D03*
X191500000Y-95600000D03*
D12*
X164000000Y-52000000D03*
X214000000Y-90000000D03*
D10*
X176050000Y-93110000D03*
X169040000Y-93110000D03*
D11*
X174800000Y-95600000D03*
X170300000Y-95600000D03*
D13*
X202535000Y-97175000D03*
D14*
X202845000Y-94175000D03*
X207685000Y-94175000D03*
D13*
X207995000Y-97175000D03*
D10*
X186650000Y-93110000D03*
X179640000Y-93110000D03*
D11*
X185400000Y-95600000D03*
X180900000Y-95600000D03*
D12*
X214000000Y-52000000D03*
X164000000Y-90000000D03*
D15*
X207750000Y-85500000D03*
X205250000Y-85500000D03*
X202750000Y-85500000D03*
X200250000Y-85500000D03*
X197750000Y-85500000D03*
X195250000Y-85500000D03*
X192750000Y-85500000D03*
X190250000Y-85500000D03*
X187750000Y-85500000D03*
X185250000Y-85500000D03*
X182750000Y-85500000D03*
X180250000Y-85500000D03*
X177750000Y-85500000D03*
X175250000Y-85500000D03*
X172750000Y-85500000D03*
X170250000Y-85500000D03*
X170250000Y-56500000D03*
X175250000Y-56500000D03*
X182750000Y-56500000D03*
X187750000Y-56500000D03*
X195250000Y-56500000D03*
X202750000Y-56500000D03*
X207750000Y-56500000D03*
D16*
X214075000Y-76225000D03*
X191900000Y-77400000D03*
X194700000Y-40499992D03*
X170600000Y-73900000D03*
X183597600Y-65146672D03*
X184995000Y-67801000D03*
X206600000Y-95700000D03*
X179200000Y-73600000D03*
X157600000Y-66300000D03*
X205300000Y-97300000D03*
X175725000Y-44428527D03*
X195800000Y-39900000D03*
X204400000Y-71958200D03*
X196717058Y-70738683D03*
X177900000Y-70500000D03*
X213246000Y-73700000D03*
X177625000Y-44600012D03*
X203900000Y-92900000D03*
X173025000Y-42900000D03*
X167899996Y-71400000D03*
X217846000Y-74000000D03*
X203200000Y-92900000D03*
X217846000Y-75900000D03*
X193696800Y-43729143D03*
X196500000Y-47340000D03*
X190800000Y-70100000D03*
X208200000Y-73200000D03*
X215500000Y-70000000D03*
X173100000Y-82200000D03*
X189100000Y-60000000D03*
X217000000Y-68000000D03*
X213000000Y-68000000D03*
X204100000Y-59800000D03*
X214000000Y-68000000D03*
X196600000Y-59800000D03*
X199100000Y-82200000D03*
X183950000Y-60000000D03*
X218000000Y-68000000D03*
X192786000Y-75338000D03*
X202600000Y-82200000D03*
X180100000Y-82200000D03*
X195600000Y-82200000D03*
X213000000Y-70000000D03*
X215500000Y-69000000D03*
X183397000Y-68103000D03*
X182838600Y-72738600D03*
X187200000Y-82200000D03*
X217000000Y-70000000D03*
X176500000Y-82200000D03*
X176400000Y-59900000D03*
X215546000Y-73600000D03*
X213000000Y-69000000D03*
X218000000Y-69000000D03*
X218000000Y-70000000D03*
X217000000Y-69000000D03*
X183700000Y-82100000D03*
X214000000Y-69000000D03*
X214000000Y-70000000D03*
X197000000Y-73000000D03*
X191600000Y-82200000D03*
X215500000Y-68000000D03*
X185688683Y-72688683D03*
X172925000Y-44200000D03*
X172652400Y-46688683D03*
X185700000Y-73800000D03*
X190700000Y-74700000D03*
X191411000Y-71100000D03*
X189788683Y-74688683D03*
X191500000Y-43250000D03*
X194500000Y-45700000D03*
D17*
X173025000Y-42900000D02*
X175924988Y-42900000D01*
X175924988Y-42900000D02*
X177625000Y-44600012D01*
D18*
X193729143Y-43729143D02*
X196500000Y-46500000D01*
X193696800Y-43729143D02*
X193729143Y-43729143D01*
X196500000Y-46500000D02*
X196500000Y-47340000D01*
D17*
X205086283Y-70086283D02*
X208200000Y-73200000D01*
X190813717Y-70086283D02*
X205086283Y-70086283D01*
X190800000Y-70100000D02*
X190813717Y-70086283D01*
X172000000Y-46958916D02*
X172600000Y-47558916D01*
X172600000Y-59600000D02*
X185688683Y-72688683D01*
X172600000Y-47558916D02*
X172600000Y-59600000D01*
X172925000Y-44200000D02*
X172000000Y-45125000D01*
X172000000Y-45125000D02*
X172000000Y-46958916D01*
X173300000Y-47336283D02*
X172652400Y-46688683D01*
X186341083Y-72418450D02*
X173300000Y-59377367D01*
X186341083Y-73158917D02*
X186341083Y-72418450D01*
X185700000Y-73800000D02*
X186341083Y-73158917D01*
X173300000Y-59377367D02*
X173300000Y-47336283D01*
X167695200Y-87109095D02*
X167695200Y-82190904D01*
X178180841Y-88780841D02*
X169366945Y-88780841D01*
X172781305Y-77104800D02*
X188086462Y-77104800D01*
X185400000Y-96000000D02*
X178180841Y-88780841D01*
X169366945Y-88780841D02*
X167695200Y-87109095D01*
X167695200Y-82190904D02*
X172781305Y-77104800D01*
X190004800Y-75395200D02*
X190700000Y-74700000D01*
X188086462Y-77104800D02*
X189796061Y-75395200D01*
X189796061Y-75395200D02*
X190004800Y-75395200D01*
X172990400Y-77609600D02*
X189190400Y-77609600D01*
X188276041Y-88276041D02*
X169576041Y-88276041D01*
X168200000Y-86900000D02*
X168200000Y-82400000D01*
X189190400Y-77609600D02*
X191411000Y-75389000D01*
X191411000Y-75389000D02*
X191411000Y-71100000D01*
X169576041Y-88276041D02*
X168200000Y-86900000D01*
X196000000Y-96000000D02*
X188276041Y-88276041D01*
X168200000Y-82400000D02*
X172990400Y-77609600D01*
X167190400Y-81981808D02*
X172572211Y-76600000D01*
X172572211Y-76600000D02*
X187877366Y-76600000D01*
X174800000Y-95000000D02*
X167190400Y-87390400D01*
X174800000Y-96000000D02*
X174800000Y-95000000D01*
X167190400Y-87390400D02*
X167190400Y-81981808D01*
X187877366Y-76600000D02*
X189788683Y-74688683D01*
D18*
X193950000Y-45700000D02*
X194500000Y-45700000D01*
X191500000Y-43250000D02*
X193950000Y-45700000D01*
D19*
X210502311Y-98461865D02*
G75*
G03*
X167509630Y-98471210I-21502311J27461865D01*
G01*
X210502311Y-98461866D02*
X167509629Y-98471211D01*
M02*
